<svg width="193" height="114" viewBox="0 0 193 114" fill="none" xmlns="http://www.w3.org/2000/svg">
<g id="client-logo-6">
<path id="Vector" fill-rule="evenodd" clip-rule="evenodd" d="M35.8159 101.515L36.523 99.775L34.4348 95.3208H35.9905L37.248 97.993L38.3219 95.3208H39.8446L37.3386 101.515H35.8159Z" fill="#D0C8C2"/>
<path id="Vector_2" fill-rule="evenodd" clip-rule="evenodd" d="M46.8675 95.3633C47.2896 95.3633 47.6852 95.443 48.0564 95.6054C48.4278 95.7678 48.7503 95.9852 49.0288 96.2629C49.3072 96.539 49.5237 96.8655 49.6851 97.2387C49.8464 97.6119 49.926 98.0122 49.926 98.4367C49.926 98.8612 49.8464 99.2586 49.6851 99.6347C49.5237 100.008 49.3072 100.333 49.0288 100.61C48.7503 100.886 48.4278 101.106 48.0564 101.269C47.6852 101.43 47.2896 101.511 46.8675 101.511C46.4455 101.511 46.0498 101.43 45.6786 101.269C45.3073 101.106 44.9847 100.888 44.7107 100.61C44.4366 100.335 44.2201 100.008 44.0588 99.6347C43.8974 99.2615 43.8179 98.8612 43.8179 98.4367C43.8179 98.0122 43.8974 97.6139 44.0588 97.2387C44.2201 96.8655 44.4366 96.5414 44.7107 96.2629C44.9847 95.9875 45.3095 95.7678 45.6786 95.6054C46.052 95.4453 46.4455 95.3633 46.8675 95.3633ZM46.8719 100.093C47.0995 100.093 47.3139 100.05 47.5128 99.9635C47.7117 99.8765 47.8863 99.7595 48.0365 99.6076C48.1868 99.4568 48.304 99.2808 48.3901 99.0816C48.4764 98.8815 48.5183 98.6659 48.5183 98.4367C48.5183 98.2076 48.4764 97.9929 48.3901 97.7918C48.304 97.5926 48.1868 97.4166 48.0365 97.2658C47.8863 97.1149 47.7117 96.997 47.5128 96.91C47.3139 96.8229 47.0995 96.7814 46.8719 96.7814C46.6443 96.7814 46.43 96.8229 46.2311 96.91C46.0321 96.997 45.8576 97.1149 45.7074 97.2658C45.5571 97.4166 45.4399 97.5926 45.3537 97.7918C45.2676 97.9929 45.2256 98.2076 45.2256 98.4367C45.2256 98.6659 45.2676 98.8815 45.3537 99.0816C45.4399 99.2808 45.5571 99.4568 45.7074 99.6076C45.8576 99.7595 46.0321 99.8765 46.2311 99.9635C46.4322 100.05 46.6443 100.093 46.8719 100.093Z" fill="#D0C8C2"/>
<path id="Vector_3" fill-rule="evenodd" clip-rule="evenodd" d="M56.2308 101.515C55.9191 101.515 55.6252 101.457 55.3489 101.343C55.0706 101.23 54.8252 101.066 54.6087 100.855C54.3876 100.633 54.2153 100.381 54.096 100.101C53.9766 99.8213 53.9148 99.5235 53.9081 99.2054V95.3633H55.3136V99.1967C55.3136 99.4413 55.4042 99.657 55.5877 99.8416C55.771 100.015 55.9876 100.101 56.2373 100.101C56.3589 100.101 56.476 100.078 56.5866 100.026C56.697 99.9751 56.7943 99.9074 56.8782 99.8262C56.9621 99.7411 57.0263 99.6434 57.0704 99.5322C57.1146 99.421 57.1368 99.3011 57.1368 99.1725V95.3633H58.5423V99.1638C58.5466 99.4819 58.4915 99.7836 58.372 100.068C58.2527 100.352 58.0892 100.602 57.8815 100.812C57.6738 101.024 57.4284 101.192 57.15 101.319C56.8694 101.444 56.571 101.511 56.255 101.515H56.2308Z" fill="#D0C8C2"/>
<path id="Vector_4" fill-rule="evenodd" clip-rule="evenodd" d="M64.7896 99.9258C64.7166 99.9374 64.6459 99.9461 64.5729 99.95C64.5 99.9577 64.4271 99.9616 64.3475 99.9684V101.517H62.9421V95.3989H64.3475C64.6967 95.4036 65.0238 95.4678 65.3288 95.5923C65.6336 95.7145 65.9011 95.8785 66.131 96.0858C66.3608 96.2924 66.542 96.5321 66.6724 96.8056C66.8028 97.0763 66.8668 97.3703 66.8668 97.6836C66.8668 98.0104 66.7983 98.3169 66.6591 98.5992C66.5199 98.8816 66.3254 99.1233 66.0757 99.3302L67.4237 101.519H65.7685L64.7896 99.9258ZM64.3475 98.5431C64.4978 98.5373 64.6393 98.5122 64.7763 98.4639C64.9133 98.4165 65.0304 98.3527 65.1343 98.2753C65.2359 98.197 65.3177 98.1051 65.3751 98.0036C65.4327 97.9011 65.4636 97.7899 65.4636 97.6719C65.4636 97.555 65.4349 97.4457 65.3751 97.3461C65.3177 97.2455 65.2359 97.1566 65.1343 97.0792C65.0326 97.0009 64.9133 96.939 64.7763 96.8907C64.6393 96.8433 64.4978 96.8172 64.3475 96.8095V98.5431Z" fill="#D0C8C2"/>
<path id="Vector_5" fill-rule="evenodd" clip-rule="evenodd" d="M76.5195 95.3478V96.761H75.3461V101.515H73.9384V96.761H72.7738V95.3478H76.5195Z" fill="#D0C8C2"/>
<path id="Vector_6" fill-rule="evenodd" clip-rule="evenodd" d="M84.1724 101.515L83.9316 100.77H82.0089L81.7592 101.515H80.2697L82.3493 95.3718H83.6818L85.6552 101.515H84.1724ZM82.4906 99.3573H83.4807L82.9989 97.8682L82.4906 99.3573Z" fill="#D0C8C2"/>
<path id="Vector_7" fill-rule="evenodd" clip-rule="evenodd" d="M94.5941 98.077V101.517H93.1798V101.366C93.0251 101.422 92.8638 101.462 92.7002 101.488C92.5368 101.512 92.3733 101.526 92.2141 101.526C91.8207 101.526 91.434 101.451 91.0584 101.3C90.6805 101.149 90.3424 100.924 90.044 100.622C89.7434 100.319 89.5203 99.9809 89.3744 99.6038C89.2285 99.2257 89.1534 98.8409 89.1534 98.4435C89.1534 98.048 89.2264 97.6593 89.3744 97.2813C89.5225 96.9013 89.7457 96.5607 90.044 96.2614C90.3446 95.9589 90.6827 95.7346 91.0584 95.583C91.434 95.4321 91.8207 95.3563 92.2141 95.3563C92.6075 95.3563 92.9942 95.4321 93.3698 95.583C93.7478 95.7346 94.0859 95.9589 94.3842 96.2614L93.3853 97.2658C93.224 97.1033 93.0406 96.9834 92.8351 96.9013C92.6296 96.821 92.4219 96.7785 92.2119 96.7785C92.0019 96.7785 91.792 96.8191 91.5887 96.9013C91.3831 96.9805 91.1998 97.1033 91.0385 97.2658C90.8771 97.4282 90.7556 97.6119 90.6716 97.8189C90.5876 98.0258 90.5479 98.2346 90.5479 98.4454C90.5479 98.6572 90.5898 98.868 90.6716 99.072C90.7556 99.2789 90.8771 99.4636 91.0385 99.6251C91.1821 99.7701 91.3457 99.8842 91.5246 99.9654C91.7058 100.046 91.8915 100.095 92.0815 100.109C92.2737 100.121 92.4638 100.104 92.6517 100.054C92.8395 100.004 93.0141 99.9219 93.1754 99.803V99.4945H91.9511V98.0819H94.5941V98.077Z" fill="#D0C8C2"/>
<path id="Vector_8" fill-rule="evenodd" clip-rule="evenodd" d="M102.455 101.515H98.8171V95.3633H100.225V100.101H102.455V101.515Z" fill="#D0C8C2"/>
<path id="Vector_9" fill-rule="evenodd" clip-rule="evenodd" d="M107.993 101.515H106.587V95.3633H107.993V101.515Z" fill="#D0C8C2"/>
<path id="Vector_10" fill-rule="evenodd" clip-rule="evenodd" d="M115.901 95.3718H117.309V101.515H115.787L113.79 97.932V101.515H112.381V95.3896H113.913L115.901 98.9637V95.3718Z" fill="#D0C8C2"/>
<path id="Vector_11" fill-rule="evenodd" clip-rule="evenodd" d="M125.468 96.7872H122.956V97.7164H124.993V99.13H122.956V100.101H125.468V101.515H121.548V95.3811L125.468 95.3718V96.7872Z" fill="#D0C8C2"/>
<path id="Vector_12" fill-rule="evenodd" clip-rule="evenodd" d="M134.196 95.3718H135.601V101.515H134.196V99.1967H132.429V101.515H131.024V95.3718H132.429V97.7841H134.196V95.3718Z" fill="#D0C8C2"/>
<path id="Vector_13" fill-rule="evenodd" clip-rule="evenodd" d="M143.693 96.7872H141.18V97.7164H143.22V99.13H141.18V100.101H143.693V101.515H139.773V95.3811L143.693 95.3718V96.7872Z" fill="#D0C8C2"/>
<path id="Vector_14" fill-rule="evenodd" clip-rule="evenodd" d="M149.823 99.9258C149.75 99.9374 149.679 99.9461 149.607 99.95C149.533 99.9577 149.458 99.9616 149.382 99.9684V101.517H147.976V95.3989H149.382C149.73 95.4036 150.058 95.4678 150.362 95.5923C150.667 95.7145 150.934 95.8785 151.164 96.0858C151.394 96.2924 151.575 96.5321 151.707 96.8056C151.836 97.0763 151.903 97.3703 151.903 97.6836C151.903 98.0104 151.834 98.3169 151.695 98.5992C151.556 98.8816 151.361 99.1233 151.111 99.3302L152.459 101.519H150.805L149.823 99.9258ZM149.382 98.5431C149.531 98.5373 149.673 98.5122 149.81 98.4639C149.946 98.4165 150.063 98.3527 150.168 98.2753C150.27 98.197 150.352 98.1051 150.409 98.0036C150.467 97.9011 150.497 97.7899 150.497 97.6719C150.497 97.555 150.469 97.4457 150.409 97.3461C150.352 97.2455 150.27 97.1566 150.168 97.0792C150.066 97.0009 149.946 96.939 149.81 96.8907C149.676 96.8433 149.531 96.8172 149.382 96.8095V98.5431Z" fill="#D0C8C2"/>
<path id="Vector_15" fill-rule="evenodd" clip-rule="evenodd" d="M160.461 96.7872H157.948V97.7164H159.988V99.13H157.948V100.101H160.461V101.515H156.543V95.3811L160.461 95.3718V96.7872Z" fill="#D0C8C2"/>
<path id="Vector_16" fill-rule="evenodd" clip-rule="evenodd" d="M34.6181 67.9048V72.6431H30.6868V88.5713H25.9732V72.6431H22.0705V67.9048H34.6181Z" fill="#D0C8C2"/>
<path id="Vector_17" fill-rule="evenodd" clip-rule="evenodd" d="M42.8146 83.2441C42.5738 83.2819 42.3307 83.3085 42.0898 83.3285C41.8489 83.3463 41.5969 83.3663 41.3362 83.3841V88.5713H36.6248V68.0736H41.3362C42.5074 68.0914 43.6036 68.307 44.6267 68.7182C45.6499 69.1293 46.547 69.6804 47.3183 70.3672C48.0895 71.0584 48.6929 71.8628 49.1304 72.7785C49.568 73.6897 49.7867 74.672 49.7867 75.7189C49.7867 76.8167 49.5546 77.8413 49.0906 78.7859C48.6266 79.7304 47.9746 80.5438 47.1394 81.235L51.6563 88.5735H46.1073L42.8146 83.2441ZM41.3384 78.6169C41.84 78.5991 42.3196 78.5102 42.7748 78.3503C43.23 78.1925 43.63 77.9813 43.9748 77.7191C44.3196 77.4568 44.5891 77.1546 44.7836 76.8078C44.9781 76.4611 45.0753 76.0922 45.0753 75.7011C45.0753 75.3078 44.9781 74.9432 44.7836 74.6076C44.5891 74.272 44.3196 73.972 43.9748 73.7098C43.63 73.4475 43.2324 73.2386 42.7748 73.0786C42.3196 72.9185 41.84 72.8319 41.3384 72.8119V78.6169Z" fill="#D0C8C2"/>
<path id="Vector_18" fill-rule="evenodd" clip-rule="evenodd" d="M66.5442 72.7273H58.1223V75.8409H64.9553V80.5792H58.1223V83.833H66.5442V88.5712H53.4109V68.0179L66.5442 67.989V72.7273Z" fill="#D0C8C2"/>
<path id="Vector_19" fill-rule="evenodd" clip-rule="evenodd" d="M81.7967 72.7273H73.3749V75.8409H80.2079V80.5792H73.3749V83.833H81.7967V88.5712H68.6635V68.0179L81.7967 67.989V72.7273Z" fill="#D0C8C2"/>
<path id="Vector_20" fill-rule="evenodd" clip-rule="evenodd" d="M99.111 67.989H103.824V88.5712H99.111V80.8037H93.1996V88.5712H88.4883V67.989H93.1996V76.0655H99.111V67.989Z" fill="#D0C8C2"/>
<path id="Vector_21" fill-rule="evenodd" clip-rule="evenodd" d="M115.018 67.9602C116.43 67.9602 117.756 68.2313 118.999 68.7736C120.239 69.3159 121.329 70.0493 122.258 70.9739C123.187 71.8984 123.917 72.9874 124.457 74.2409C124.995 75.4943 125.265 76.8301 125.265 78.2502C125.265 79.6703 124.995 81.0082 124.457 82.2595C123.917 83.513 123.187 84.602 122.258 85.5265C121.327 86.451 120.239 87.1867 118.999 87.7267C117.754 88.2691 116.43 88.5402 115.018 88.5402C113.605 88.5402 112.279 88.2691 111.036 87.7267C109.796 87.1845 108.713 86.451 107.792 85.5265C106.872 84.602 106.147 83.513 105.608 82.2595C105.069 81.006 104.8 79.6703 104.8 78.2502C104.8 76.8301 105.069 75.4921 105.608 74.2409C106.147 72.9874 106.872 71.8984 107.792 70.9739C108.711 70.0493 109.794 69.3137 111.036 68.7736C112.282 68.2313 113.605 67.9602 115.018 67.9602ZM115.033 83.8041C115.795 83.8041 116.511 83.6596 117.182 83.3685C117.851 83.0796 118.437 82.6818 118.938 82.1772C119.439 81.6728 119.836 81.0838 120.122 80.4104C120.41 79.737 120.555 79.0169 120.555 78.2502C120.555 77.4834 120.412 76.7634 120.122 76.0899C119.836 75.4165 119.439 74.8276 118.938 74.3231C118.437 73.8186 117.851 73.4208 117.182 73.1318C116.511 72.8429 115.795 72.6963 115.033 72.6963C114.271 72.6963 113.555 72.8407 112.885 73.1318C112.216 73.4208 111.63 73.8186 111.129 74.3231C110.627 74.8276 110.231 75.4165 109.944 76.0899C109.657 76.7634 109.511 77.4834 109.511 78.2502C109.511 79.0169 109.655 79.737 109.944 80.4104C110.231 81.0838 110.627 81.6728 111.129 82.1772C111.63 82.6818 112.216 83.0796 112.885 83.3685C113.555 83.6596 114.271 83.8041 115.033 83.8041Z" fill="#D0C8C2"/>
<path id="Vector_22" fill-rule="evenodd" clip-rule="evenodd" d="M134.467 88.5713C133.427 88.5713 132.44 88.3801 131.512 87.9957C130.581 87.6134 129.755 87.0666 129.03 86.3555C128.288 85.6087 127.716 84.7665 127.315 83.8308C126.916 82.8951 126.706 81.895 126.687 80.8304V67.9602H131.399V80.8038C131.399 81.6261 131.707 82.3462 132.318 82.964C132.933 83.5441 133.658 83.833 134.494 83.833C134.903 83.833 135.293 83.7486 135.665 83.5797C136.036 83.4107 136.36 83.1862 136.642 82.9062C136.92 82.6262 137.134 82.2995 137.282 81.9239C137.43 81.5506 137.505 81.1484 137.505 80.7171V67.958H142.216V80.6882C142.235 81.7528 142.044 82.764 141.645 83.7174C141.244 84.6709 140.697 85.5021 140 86.2132C139.305 86.9244 138.484 87.489 137.547 87.909C136.608 88.329 135.609 88.5491 134.55 88.569L134.467 88.5713Z" fill="#D0C8C2"/>
<path id="Vector_23" fill-rule="evenodd" clip-rule="evenodd" d="M151.114 88.9648C150.464 88.9648 149.817 88.8758 149.175 88.698C148.535 88.5202 147.925 88.2447 147.35 87.8713C146.347 87.2178 145.565 86.3711 145.008 85.3332C144.452 84.2953 144.172 83.1596 144.172 81.9261H148.884C148.884 82.4862 149.005 82.9218 149.246 83.2308C149.487 83.5397 149.701 83.7485 149.887 83.8619C150.221 84.0864 150.584 84.2087 150.975 84.2264C151.366 84.2442 151.746 84.1709 152.117 84.002C152.378 83.8886 152.585 83.7486 152.745 83.5819C152.904 83.413 153.023 83.2508 153.108 83.0908C153.191 82.9307 153.242 82.7774 153.26 82.6285C153.278 82.4796 153.288 82.3574 153.288 82.264C153.288 82.1706 153.279 82.0484 153.26 81.8995C153.242 81.7506 153.188 81.5906 153.108 81.4217C153.023 81.2528 152.902 81.0905 152.745 80.9306C152.588 80.7705 152.378 80.6261 152.117 80.495C151.911 80.4016 151.695 80.3172 151.461 80.2415C151.228 80.1659 150.981 80.0837 150.723 79.9882C150.258 79.8393 149.774 79.6704 149.273 79.4837C148.771 79.297 148.27 79.0436 147.768 78.7258C147.118 78.3147 146.568 77.8013 146.124 77.1835C145.677 76.5656 145.357 75.9034 145.163 75.1921C144.968 74.4809 144.902 73.7476 144.968 72.9919C145.032 72.234 145.243 71.5095 145.596 70.8183C145.929 70.1827 146.349 69.6316 146.851 69.1648C147.353 68.6981 147.91 68.3292 148.524 68.058C149.138 67.7869 149.796 67.6224 150.504 67.5668C151.211 67.5113 151.925 67.5757 152.652 67.7625C153.359 67.9314 153.995 68.198 154.565 68.5626C155.142 68.927 155.635 69.367 156.049 69.8805C156.467 70.3939 156.786 70.9694 157.005 71.6051C157.229 72.2407 157.339 72.9052 157.339 73.5963H152.649C152.649 73.1674 152.515 72.8675 152.245 72.6985C151.975 72.5296 151.739 72.4185 151.534 72.3629C151.496 72.3629 151.408 72.3496 151.269 72.3208C151.129 72.2918 150.97 72.2918 150.793 72.3208C150.617 72.3496 150.435 72.414 150.25 72.5163C150.063 72.6186 149.917 72.783 149.803 73.0075C149.655 73.3074 149.627 73.6187 149.72 73.9475C149.812 74.2743 149.998 74.532 150.277 74.7187C150.537 74.8676 150.825 75.0032 151.141 75.1255C151.456 75.2477 151.79 75.3633 152.144 75.4766C152.459 75.57 152.78 75.6722 153.106 75.7855C153.429 75.8966 153.755 76.0278 154.09 76.1789C155.308 76.739 156.265 77.5613 156.959 78.6458C157.651 79.7304 158 80.9349 158 82.264C158 83.573 157.651 84.7687 156.959 85.8533C156.268 86.9378 155.308 87.7601 154.09 88.3201C153.611 88.5446 153.118 88.7091 152.616 88.8113C152.117 88.9136 151.615 88.9648 151.114 88.9648Z" fill="#D0C8C2"/>
<path id="Vector_24" fill-rule="evenodd" clip-rule="evenodd" d="M172.835 72.7273H164.413V75.8409H171.246V80.5792H164.413V83.833H172.835V88.5712H159.701V68.0179L172.835 67.989V72.7273Z" fill="#D0C8C2"/>
<path id="Vector_25" fill-rule="evenodd" clip-rule="evenodd" d="M91.3721 45.2089H96.2758V50.1383H91.3721V45.2089ZM98.5588 31.023C98.6558 32.9521 99.4999 37.9726 105.676 37.9726C106.286 37.9726 106.784 38.4705 106.784 39.086C106.784 39.6994 106.289 40.1995 105.676 40.1995C102.13 40.1995 99.9272 38.9394 98.5588 37.3126V39.0884C98.5588 39.704 98.0633 40.2018 97.4516 40.2018C96.8415 40.2018 96.3443 39.704 96.3443 39.0884V37.3148C94.9764 38.9417 92.7731 40.2018 89.2285 40.2018C88.6186 40.2018 88.1214 39.704 88.1214 39.0884C88.1214 38.4727 88.6164 37.9749 89.2285 37.9749C95.4029 37.9749 96.247 32.9521 96.3443 31.0252V30.8897C96.3355 30.5941 96.3399 30.3785 96.3443 30.2629V29.0429C94.9764 30.6696 92.7731 31.9298 89.2285 31.9298C88.6186 31.9298 88.1214 31.4319 88.1214 30.8163C88.1214 30.2029 88.6164 29.7029 89.2285 29.7029C95.4029 29.7029 96.247 24.6802 96.3443 22.7533V22.6155C96.3355 22.3198 96.3399 22.1021 96.3443 21.9887V20.7708C94.9764 22.3977 92.7731 23.6578 89.2285 23.6578C88.6186 23.6578 88.1214 23.16 88.1214 22.5443C88.1214 21.9309 88.6164 21.4309 89.2285 21.4309C95.4029 21.4309 96.247 16.4081 96.3443 14.4812V14.3457C96.3355 14.0501 96.3399 13.8345 96.3443 13.7189V13.6834C96.3443 13.07 96.8393 12.5699 97.4516 12.5699C98.0633 12.5699 98.5588 13.0678 98.5588 13.6834V13.7189C98.5626 13.8323 98.5674 14.0501 98.5588 14.3457V14.4812C98.6558 16.4103 99.4999 21.4309 105.676 21.4309C106.286 21.4309 106.784 21.9287 106.784 22.5443C106.784 23.1578 106.289 23.6578 105.676 23.6578C102.13 23.6578 99.9272 22.3977 98.5588 20.7708V21.991C98.5626 22.1043 98.5674 22.3221 98.5588 22.6176V22.7533C98.6558 24.6824 99.4999 29.7029 105.676 29.7029C106.286 29.7029 106.784 30.2008 106.784 30.8163C106.784 31.4297 106.289 31.9298 105.676 31.9298C102.13 31.9298 99.9272 30.6696 98.5588 29.0429V30.2629C98.5626 30.3763 98.5674 30.5941 98.5588 30.8897V31.023ZM139.828 39.5416C139.925 41.4708 140.769 46.4913 146.946 46.4913C147.556 46.4913 148.054 46.9892 148.054 47.6048C148.054 48.2181 147.558 48.7182 146.946 48.7182C143.399 48.7182 141.195 47.4581 139.828 45.8312V56.9925C139.828 57.6059 139.333 58.1059 138.721 58.1059C138.111 58.1059 137.614 57.608 137.614 56.9925V45.8312C136.246 47.4581 134.042 48.7182 130.498 48.7182C129.888 48.7182 129.391 48.2204 129.391 47.6048C129.391 46.9914 129.886 46.4913 130.498 46.4913C136.672 46.4913 137.516 41.4685 137.614 39.5416V39.4062C137.605 39.1105 137.61 38.895 137.614 38.7794V37.5593C136.246 39.1861 134.042 40.4463 130.498 40.4463C129.888 40.4463 129.391 39.9484 129.391 39.3328C129.391 38.7194 129.886 38.2193 130.498 38.2193C136.672 38.2193 137.516 33.1966 137.614 31.2697V31.1341C137.605 30.8385 137.61 30.623 137.614 30.5075V29.2873C136.246 30.9141 134.042 32.1742 130.498 32.1742C129.888 32.1742 129.391 31.6764 129.391 31.0608C129.391 30.4452 129.886 29.9473 130.498 29.9473C136.672 29.9473 137.516 24.9246 137.614 22.9977V22.8622C137.605 22.5666 137.61 22.3487 137.614 22.2354V22.1998C137.614 21.5864 138.108 21.0863 138.721 21.0863C139.333 21.0863 139.828 21.5842 139.828 22.1998V22.2354C139.833 22.3487 139.837 22.5666 139.828 22.8622V22.9977C139.925 24.9268 140.769 29.9473 146.946 29.9473C147.556 29.9473 148.054 30.4452 148.054 31.0608C148.054 31.6741 147.558 32.1742 146.946 32.1742C143.399 32.1742 141.195 30.9141 139.828 29.2873V30.5075C139.833 30.6208 139.837 30.8385 139.828 31.1341V31.2697C139.925 33.1988 140.769 38.2193 146.946 38.2193C147.556 38.2193 148.054 38.7172 148.054 39.3328C148.054 39.9462 147.558 40.4463 146.946 40.4463C143.399 40.4463 141.195 39.1861 139.828 37.5593V38.7794C139.833 38.8927 139.837 39.1105 139.828 39.4062V39.5416ZM118.708 31.023C118.805 32.9521 119.651 37.9726 125.826 37.9726C126.436 37.9726 126.933 38.4705 126.933 39.086C126.933 39.6994 126.439 40.1995 125.826 40.1995C122.28 40.1995 120.077 38.9394 118.708 37.3126V56.9946C118.708 57.6081 118.213 58.1081 117.601 58.1081C116.991 58.1081 116.494 57.6103 116.494 56.9946V37.3126C115.127 38.9394 112.923 40.1995 109.378 40.1995C108.769 40.1995 108.271 39.7018 108.271 39.086C108.271 38.4705 108.766 37.9726 109.378 37.9726C115.553 37.9726 116.397 32.9499 116.494 31.023V30.8875C116.484 30.5919 116.489 30.3763 116.494 30.2607V29.0406C115.127 30.6674 112.923 31.9276 109.378 31.9276C108.769 31.9276 108.271 31.4297 108.271 30.8141C108.271 30.2008 108.766 29.7007 109.378 29.7007C115.553 29.7007 116.397 24.6778 116.494 22.751V22.6155C116.484 22.3198 116.489 22.1021 116.494 21.9887V20.7708C115.127 22.3977 112.923 23.6578 109.378 23.6578C108.769 23.6578 108.271 23.16 108.271 22.5443C108.271 21.9309 108.766 21.4309 109.378 21.4309C115.553 21.4309 116.397 16.4081 116.494 14.4812V14.3457C116.484 14.0501 116.489 13.8345 116.494 13.7189V13.6834C116.494 13.07 116.989 12.5699 117.601 12.5699C118.213 12.5699 118.708 13.0678 118.708 13.6834V13.7189C118.712 13.8323 118.717 14.0501 118.708 14.3457V14.4812C118.805 16.4103 119.651 21.4309 125.826 21.4309C126.436 21.4309 126.933 21.9287 126.933 22.5443C126.933 23.1578 126.439 23.6578 125.826 23.6578C122.28 23.6578 120.077 22.3977 118.708 20.7708V21.991C118.712 22.1043 118.717 22.3221 118.708 22.6176V22.7533C118.805 24.6824 119.651 29.7029 125.826 29.7029C126.436 29.7029 126.933 30.2008 126.933 30.8163C126.933 31.4297 126.439 31.9298 125.826 31.9298C122.28 31.9298 120.077 30.6696 118.708 29.0429V30.2629C118.712 30.3763 118.717 30.5941 118.708 30.8897V31.023ZM78.4089 31.023C78.5062 32.9521 79.3504 37.9726 85.5269 37.9726C86.1369 37.9726 86.6341 38.4705 86.6341 39.086C86.6341 39.6994 86.1391 40.1995 85.5269 40.1995C81.9801 40.1995 79.7769 38.9394 78.4089 37.3126V56.9946C78.4089 57.6081 77.914 58.1081 77.3018 58.1081C76.6919 58.1081 76.1946 57.6103 76.1946 56.9946V37.3126C74.8268 38.9394 72.6235 40.1995 69.0789 40.1995C68.469 40.1995 67.9717 39.7018 67.9717 39.086C67.9717 38.4705 68.4668 37.9726 69.0789 37.9726C75.2533 37.9726 76.0974 32.9499 76.1946 31.023V30.8875C76.1859 30.5919 76.1903 30.3763 76.1946 30.2607V29.0406C74.8268 30.6674 72.6235 31.9276 69.0789 31.9276C68.469 31.9276 67.9717 31.4297 67.9717 30.8141C67.9717 30.2008 68.4668 29.7007 69.0789 29.7007C75.2533 29.7007 76.0974 24.6778 76.1946 22.751V22.6155C76.1859 22.3198 76.1903 22.1021 76.1946 21.9887V20.7708C74.8268 22.3977 72.6235 23.6578 69.0789 23.6578C68.469 23.6578 67.9717 23.16 67.9717 22.5443C67.9717 21.9309 68.4668 21.4309 69.0789 21.4309C75.2533 21.4309 76.0974 16.4081 76.1946 14.4812V14.3457C76.1859 14.0501 76.1903 13.8345 76.1946 13.7189V13.6834C76.1946 13.07 76.6897 12.5699 77.3018 12.5699C77.9118 12.5699 78.4089 13.0678 78.4089 13.6834V13.7189C78.4135 13.8323 78.4179 14.0501 78.4089 14.3457V14.4812C78.5062 16.4103 79.3504 21.4309 85.5269 21.4309C86.1369 21.4309 86.6341 21.9287 86.6341 22.5443C86.6341 23.1578 86.1391 23.6578 85.5269 23.6578C81.9801 23.6578 79.7769 22.3977 78.4089 20.7708V21.991C78.4135 22.1043 78.4179 22.3221 78.4089 22.6176V22.7533C78.5062 24.6824 79.3504 29.7029 85.5269 29.7029C86.1369 29.7029 86.6341 30.2008 86.6341 30.8163C86.6341 31.4297 86.1391 31.9298 85.5269 31.9298C81.9801 31.9298 79.7769 30.6696 78.4089 29.0429V30.2629C78.4135 30.3763 78.4179 30.5941 78.4089 30.8897V31.023ZM57.2892 39.5416C57.3865 41.4708 58.2329 46.4913 64.4072 46.4913C65.0171 46.4913 65.5144 46.9892 65.5144 47.6048C65.5144 48.2181 65.0194 48.7182 64.4072 48.7182C60.8604 48.7182 58.6571 47.4581 57.2892 45.8312V56.9925C57.2892 57.6059 56.7943 58.1059 56.1821 58.1059C55.5722 58.1059 55.0749 57.608 55.0749 56.9925V45.8312C53.707 47.4581 51.5038 48.7182 47.9591 48.7182C47.3492 48.7182 46.852 48.2204 46.852 47.6048C46.852 46.9914 47.347 46.4913 47.9591 46.4913C54.1335 46.4913 54.9777 41.4685 55.0749 39.5416V39.4062C55.0661 39.1105 55.0706 38.895 55.0749 38.7794V37.5593C53.707 39.1861 51.5038 40.4463 47.9591 40.4463C47.3492 40.4463 46.852 39.9484 46.852 39.3328C46.852 38.7194 47.347 38.2193 47.9591 38.2193C54.1335 38.2193 54.9777 33.1966 55.0749 31.2697V31.1341C55.0661 30.8385 55.0706 30.623 55.0749 30.5075V29.2873C53.707 30.9141 51.5038 32.1742 47.9591 32.1742C47.3492 32.1742 46.852 31.6764 46.852 31.0608C46.852 30.4452 47.347 29.9473 47.9591 29.9473C54.1335 29.9473 54.9777 24.9246 55.0749 22.9977V22.8622C55.0661 22.5666 55.0706 22.3487 55.0749 22.2354V22.1998C55.0749 21.5864 55.57 21.0863 56.1821 21.0863C56.792 21.0863 57.2892 21.5842 57.2892 22.1998V22.2354C57.2937 22.3487 57.2981 22.5666 57.2892 22.8622V22.9977C57.3865 24.9268 58.2329 29.9473 64.4072 29.9473C65.0171 29.9473 65.5144 30.4452 65.5144 31.0608C65.5144 31.6741 65.0194 32.1742 64.4072 32.1742C60.8604 32.1742 58.6571 30.9141 57.2892 29.2873V30.5075C57.2937 30.6208 57.2981 30.8385 57.2892 31.1341V31.2697C57.3865 33.1988 58.2329 38.2193 64.4072 38.2193C65.0171 38.2193 65.5144 38.7172 65.5144 39.3328C65.5144 39.9462 65.0194 40.4463 64.4072 40.4463C60.8604 40.4463 58.6571 39.1861 57.2892 37.5593V38.7794C57.2937 38.8927 57.2981 39.1105 57.2892 39.4062V39.5416ZM98.6299 45.2089H103.53V50.1383H98.6299V45.2089ZM91.3721 52.0631H96.2758V56.9925H91.3721V52.0631ZM98.6299 52.0631H103.53V56.9925H98.6299V52.0631Z" fill="#D0C8C2"/>
</g>
</svg>
