<svg width="144" height="95" viewBox="0 0 144 95" fill="none" xmlns="http://www.w3.org/2000/svg">
<g id="Group">
<path id="Vector" fill-rule="evenodd" clip-rule="evenodd" d="M5.94536 75.0495C5.71317 75.0852 5.48088 75.1115 5.24868 75.1307C5.01648 75.1473 4.77718 75.1665 4.52597 75.1856V80.1711H0.00708008V60.4666H4.52837C5.65152 60.4857 6.7037 60.6911 7.68472 61.0874C8.66574 61.4838 9.52587 62.0139 10.2653 62.673C11.0045 63.3368 11.5851 64.1106 12.0045 64.9916C12.424 65.868 12.6325 66.8113 12.6325 67.8165C12.6325 68.8719 12.4097 69.8558 11.9642 70.7632C11.5187 71.6706 10.8931 72.4514 10.0922 73.1177L14.4263 80.1711H9.10171L5.94536 75.0495ZM4.52837 70.6032C5.00938 70.5841 5.46906 70.5005 5.90513 70.3477C6.34109 70.1949 6.72501 69.9919 7.05439 69.7412C7.38377 69.4904 7.64199 69.1967 7.82924 68.8648C8.0164 68.5329 8.11118 68.1771 8.11118 67.7998C8.11118 67.4224 8.0164 67.0715 7.82924 66.7491C7.64199 66.4244 7.38377 66.1378 7.05439 65.8871C6.72501 65.6364 6.34109 65.4334 5.90513 65.2806C5.46906 65.1278 5.00938 65.0418 4.52837 65.0251V70.6032Z" fill="#D0C8C2"/>
<path id="Vector_2" fill-rule="evenodd" clip-rule="evenodd" d="M26.7605 64.5571H19.3742V67.2921H25.3655V71.4569H19.3742V74.3142H26.7605V78.4787H15.2412V60.4163L26.7605 60.3923V64.5571Z" fill="#D0C8C2"/>
<path id="Vector_3" fill-rule="evenodd" clip-rule="evenodd" d="M39.6727 78.4787L38.9644 76.2852H33.3152L32.5809 78.4787H28.2032L34.316 60.3923H38.2279L44.0245 78.4787H39.6727ZM34.7319 72.1227H37.6409L36.2222 67.7374L34.7319 72.1227Z" fill="#D0C8C2"/>
<path id="Vector_4" fill-rule="evenodd" clip-rule="evenodd" d="M56.4471 78.4787H45.7617V60.3684H49.8946V74.3143H56.4471V78.4787Z" fill="#D0C8C2"/>
<path id="Vector_5" fill-rule="evenodd" clip-rule="evenodd" d="M74.0554 64.5571H66.6689V67.2921H72.6601V71.4569H66.6689V74.3142H74.0554V78.4787H62.536V60.4163L74.0554 60.3923V64.5571Z" fill="#D0C8C2"/>
<path id="Vector_6" fill-rule="evenodd" clip-rule="evenodd" d="M82.0266 78.8236C81.4572 78.8236 80.8887 78.7455 80.326 78.59C79.7633 78.4331 79.2303 78.191 78.7252 77.8635C77.8456 77.2893 77.159 76.5451 76.6721 75.6326C76.1824 74.7202 75.9375 73.7227 75.9375 72.6379H80.0706C80.0706 73.1312 80.1771 73.5131 80.3894 73.7839C80.6016 74.0544 80.7879 74.24 80.9521 74.3383C81.245 74.5348 81.5628 74.6417 81.9057 74.6591C82.2475 74.6765 82.5807 74.6089 82.9082 74.4626C83.1358 74.3644 83.3201 74.24 83.4584 74.0938C83.5967 73.9453 83.7033 73.8013 83.7772 73.6616C83.8512 73.5219 83.8963 73.3866 83.9107 73.2555C83.929 73.1246 83.9347 73.0177 83.9347 72.9346C83.9347 72.8518 83.9261 72.7448 83.9107 72.6139C83.8963 72.4829 83.8512 72.3432 83.7772 72.1947C83.7033 72.0463 83.5967 71.9023 83.4584 71.7625C83.3201 71.6229 83.1358 71.4962 82.9082 71.3806C82.7286 71.2976 82.5375 71.2256 82.3339 71.1579C82.1304 71.0902 81.9133 71.0182 81.6867 70.9352C81.2795 70.8043 80.8541 70.6559 80.4153 70.4922C79.9755 70.3284 79.5357 70.1058 79.0939 69.8265C78.5235 69.4641 78.0424 69.0122 77.6516 68.4709C77.2589 67.9296 76.9794 67.3446 76.8085 66.7225C76.6375 66.0982 76.5809 65.4543 76.6375 64.7886C76.6932 64.1227 76.8776 63.4876 77.1878 62.8786C77.4797 62.3197 77.8485 61.8351 78.2873 61.4248C78.7271 61.0144 79.2169 60.6892 79.7546 60.4513C80.2914 60.2134 80.8724 60.0692 81.4918 60.0191C82.1112 59.9689 82.7392 60.0279 83.3739 60.1916C83.9933 60.34 84.5522 60.5735 85.0525 60.8944C85.5566 61.2153 85.9907 61.6016 86.3527 62.0535C86.7186 62.5053 86.9999 63.0095 87.192 63.5683C87.3879 64.1272 87.4858 64.7099 87.4858 65.3189H83.3739C83.3739 64.9413 83.2548 64.6794 83.0186 64.531C82.7824 64.3826 82.575 64.2843 82.3944 64.2363C82.3627 64.2363 82.285 64.2232 82.163 64.1991C82.041 64.1752 81.9028 64.1752 81.7472 64.1991C81.5916 64.2232 81.4332 64.2821 81.2709 64.3716C81.1086 64.4611 80.978 64.6051 80.8782 64.8037C80.7485 65.0658 80.7245 65.3429 80.8042 65.6289C80.8868 65.917 81.05 66.1419 81.2949 66.3056C81.5225 66.4366 81.7751 66.5566 82.0526 66.6635C82.3301 66.7705 82.622 66.873 82.9322 66.9714C83.2088 67.0542 83.4911 67.1438 83.7744 67.2419C84.0605 67.3402 84.3448 67.4559 84.6386 67.5869C85.7074 68.0801 86.5467 68.8026 87.1536 69.7543C87.7605 70.7061 88.0658 71.767 88.0658 72.9325C88.0658 74.0828 87.7605 75.1349 87.1536 76.0867C86.5467 77.0384 85.7074 77.7631 84.6386 78.2544C84.219 78.4509 83.7878 78.5947 83.348 78.6867C82.9082 78.7803 82.4665 78.8236 82.0266 78.8236Z" fill="#D0C8C2"/>
<path id="Vector_7" fill-rule="evenodd" clip-rule="evenodd" d="M100.635 60.3181V64.4829H97.1885V78.4787H93.0564V64.4829H89.6321V60.3181H100.635Z" fill="#D0C8C2"/>
<path id="Vector_8" fill-rule="evenodd" clip-rule="evenodd" d="M113.182 78.4787L112.473 76.2852H106.824L106.09 78.4787H101.712L107.825 60.3923H111.737L117.531 78.4787H113.182ZM108.243 72.1227H111.152L109.734 67.7374L108.243 72.1227Z" fill="#D0C8C2"/>
<path id="Vector_9" fill-rule="evenodd" clip-rule="evenodd" d="M129.566 60.3181V64.4829H126.118V78.4787H121.985V64.4829H118.562V60.3181H129.566Z" fill="#D0C8C2"/>
<path id="Vector_10" fill-rule="evenodd" clip-rule="evenodd" d="M143.089 64.5571H135.704V67.2921H141.696V71.4569H135.704V74.3142H143.089V78.4787H131.571V60.4163L143.089 60.3923V64.5571Z" fill="#D0C8C2"/>
<path id="Vector_11" fill-rule="evenodd" clip-rule="evenodd" d="M2.79266 93.4338L3.58336 91.4864L1.25256 86.5095H2.9876L4.38913 89.4936L5.58698 86.5095H7.28736L4.49303 93.4338H2.79266Z" fill="#D0C8C2"/>
<path id="Vector_12" fill-rule="evenodd" clip-rule="evenodd" d="M15.1221 86.5551C15.5921 86.5551 16.034 86.6448 16.4477 86.8259C16.8615 87.0077 17.2233 87.2523 17.5329 87.5598C17.8427 87.8673 18.0854 88.2318 18.2652 88.6485C18.4449 89.0653 18.5337 89.5129 18.5337 89.9867C18.5337 90.4605 18.4449 90.9072 18.2652 91.3249C18.0854 91.7417 17.8427 92.1062 17.5329 92.4146C17.2233 92.7221 16.8615 92.9687 16.4477 93.1476C16.034 93.3284 15.5921 93.4183 15.1221 93.4183C14.6521 93.4183 14.2102 93.3284 13.7965 93.1476C13.3827 92.9668 13.0232 92.7221 12.7156 92.4146C12.4101 92.1062 12.1676 91.7417 11.9878 91.3249C11.808 90.9072 11.7191 90.4605 11.7191 89.9867C11.7191 89.5129 11.808 89.0682 11.9878 88.6485C12.1676 88.2318 12.408 87.8673 12.7156 87.5598C13.021 87.2523 13.3827 87.0048 13.7965 86.8259C14.2102 86.6471 14.6521 86.5551 15.1221 86.5551ZM15.1264 91.8422C15.3799 91.8422 15.6181 91.7939 15.8413 91.6982C16.0644 91.6024 16.2593 91.469 16.4261 91.3008C16.5928 91.1325 16.725 90.9362 16.8203 90.7109C16.9157 90.4866 16.9633 90.2468 16.9633 89.9916C16.9633 89.7363 16.9157 89.4955 16.8203 89.2702C16.725 89.0459 16.5928 88.8496 16.4261 88.6814C16.2593 88.5131 16.0644 88.3807 15.8413 88.284C15.6181 88.1873 15.3799 88.1399 15.1264 88.1399C14.8731 88.1399 14.6347 88.1873 14.4116 88.284C14.1886 88.3807 13.9935 88.5131 13.8267 88.6814C13.6599 88.8496 13.5278 89.0459 13.4325 89.2702C13.3372 89.4955 13.2896 89.7363 13.2896 89.9916C13.2896 90.2468 13.3372 90.4866 13.4325 90.7109C13.5278 90.9362 13.6599 91.1325 13.8267 91.3008C13.9935 91.469 14.1886 91.6024 14.4116 91.6982C14.6347 91.7939 14.8731 91.8422 15.1264 91.8422Z" fill="#D0C8C2"/>
<path id="Vector_13" fill-rule="evenodd" clip-rule="evenodd" d="M25.567 93.4338C25.2205 93.4338 24.8912 93.37 24.5837 93.2414C24.2739 93.1128 23.9988 92.9319 23.7584 92.6931C23.5114 92.4446 23.3208 92.1633 23.1865 91.85C23.0544 91.5386 22.9829 91.205 22.9785 90.8492V86.5551H24.5468V90.8405C24.5468 91.1151 24.6486 91.3559 24.8522 91.5609C25.0559 91.7543 25.2985 91.85 25.5757 91.85C25.7121 91.85 25.8422 91.8229 25.9657 91.7659C26.0892 91.7088 26.1975 91.6343 26.2905 91.5415C26.3837 91.4468 26.4552 91.3375 26.505 91.2128C26.5548 91.089 26.5787 90.9536 26.5787 90.8115V86.5551H28.1468V90.8038C28.1534 91.1586 28.0906 91.4951 27.9562 91.8132C27.8242 92.1323 27.64 92.4098 27.4082 92.6457C27.1765 92.8826 26.9036 93.0712 26.5917 93.2104C26.2798 93.3497 25.9461 93.4241 25.5931 93.4309L25.567 93.4338Z" fill="#D0C8C2"/>
<path id="Vector_14" fill-rule="evenodd" clip-rule="evenodd" d="M35.1153 91.6537C35.0351 91.6672 34.9549 91.6769 34.8747 91.6827C34.7947 91.6895 34.7102 91.6962 34.6235 91.703V93.4338H33.0553V86.5946H34.6235C35.0134 86.6016 35.3795 86.6735 35.7196 86.8114C36.0596 86.9477 36.3586 87.1314 36.6163 87.3606C36.8741 87.5927 37.0734 87.8605 37.2206 88.166C37.3658 88.4696 37.4394 88.7974 37.4394 89.1465C37.4394 89.5129 37.3615 89.8533 37.2077 90.1695C37.0538 90.4847 36.8373 90.7574 36.5578 90.9865L38.0611 93.4357H36.2135L35.1153 91.6537ZM34.6235 90.1115C34.7903 90.1047 34.9506 90.0767 35.1022 90.0215C35.2539 89.9693 35.386 89.8997 35.5008 89.8117C35.6156 89.7247 35.7044 89.6251 35.7693 89.5091C35.8344 89.393 35.8669 89.2702 35.8669 89.1397C35.8669 89.0092 35.8344 88.8873 35.7693 88.7752C35.7044 88.664 35.6156 88.5634 35.5008 88.4764C35.386 88.3884 35.2539 88.3188 35.1022 88.2666C34.9506 88.2144 34.7903 88.1834 34.6235 88.1767V90.1115Z" fill="#D0C8C2"/>
<path id="Vector_15" fill-rule="evenodd" clip-rule="evenodd" d="M48.2028 86.5381V88.1176H46.8945V93.4337H45.3241V88.1176H44.0244V86.5381H48.2028Z" fill="#D0C8C2"/>
<path id="Vector_16" fill-rule="evenodd" clip-rule="evenodd" d="M56.7394 93.4338L56.4709 92.6013H54.3264L54.047 93.4338H52.3856L54.7077 86.566H56.1936L58.3944 93.4338H56.7394ZM54.8636 91.0195H55.9683L55.429 89.3544L54.8636 91.0195Z" fill="#D0C8C2"/>
<path id="Vector_17" fill-rule="evenodd" clip-rule="evenodd" d="M68.3671 89.5874V93.4338H66.788V93.2646C66.6147 93.3284 66.4371 93.3729 66.2552 93.3999C66.0732 93.4289 65.8912 93.4425 65.7115 93.4425C65.2717 93.4425 64.8429 93.3574 64.4205 93.1891C64.0002 93.0209 63.6212 92.7676 63.2876 92.4311C62.954 92.0956 62.705 91.7156 62.5403 91.294C62.3757 90.8734 62.2933 90.4402 62.2933 89.9974C62.2933 89.5545 62.3757 89.1204 62.5403 88.6969C62.705 88.2733 62.954 87.8914 63.2876 87.5549C63.6212 87.2184 64.0002 86.9661 64.4205 86.7978C64.8408 86.6294 65.2717 86.5443 65.7115 86.5443C66.1512 86.5443 66.5801 86.6294 67.0025 86.7978C67.4228 86.9661 67.8018 87.2184 68.1354 87.5549L67.022 88.6775C66.8422 88.4957 66.6386 88.3604 66.4089 88.2714C66.1794 88.1815 65.9476 88.136 65.7115 88.136C65.4753 88.136 65.2436 88.1815 65.0162 88.2714C64.7866 88.3604 64.5829 88.4977 64.4032 88.6775C64.2234 88.8583 64.0869 89.0633 63.9938 89.2944C63.9007 89.5265 63.8551 89.7605 63.8551 89.9954C63.8551 90.2333 63.9007 90.4673 63.9938 90.6955C64.0869 90.9275 64.2234 91.1325 64.4032 91.3133C64.5634 91.4758 64.7454 91.6024 64.9468 91.6933C65.1483 91.7832 65.3563 91.8384 65.5686 91.8529C65.783 91.8683 65.9931 91.849 66.2053 91.792C66.4154 91.7349 66.6104 91.6421 66.7901 91.5106V91.1625H65.4256V89.5825H68.3671V89.5874Z" fill="#D0C8C2"/>
<path id="Vector_18" fill-rule="evenodd" clip-rule="evenodd" d="M77.1378 93.4338H73.0787V86.5551H74.6488V91.85H77.1378V93.4338Z" fill="#D0C8C2"/>
<path id="Vector_19" fill-rule="evenodd" clip-rule="evenodd" d="M83.3153 93.4338H81.7452V86.5551H83.3153V93.4338Z" fill="#D0C8C2"/>
<path id="Vector_20" fill-rule="evenodd" clip-rule="evenodd" d="M92.1403 86.5643H93.7085V93.4338H92.0107L89.7809 89.4279V93.4338H88.2128V86.5837H89.9202L92.1403 90.5785V86.5643Z" fill="#D0C8C2"/>
<path id="Vector_21" fill-rule="evenodd" clip-rule="evenodd" d="M103.223 88.2956H100.155V89.4317H102.645V91.1606H100.155V92.347H103.223V94.0787H98.4387V86.5762L103.223 86.5643V88.2956Z" fill="#D0C8C2"/>
<path id="Vector_22" fill-rule="evenodd" clip-rule="evenodd" d="M112.547 86.5643H114.115V93.4338H112.547V90.8405H110.578V93.4338H109.01V86.5643H110.578V89.2596H112.547V86.5643Z" fill="#D0C8C2"/>
<path id="Vector_23" fill-rule="evenodd" clip-rule="evenodd" d="M123.144 88.1467H120.341V89.1852H122.615V90.7661H120.341V91.85H123.144V93.4338H118.771V86.5752L123.144 86.5643V88.1467Z" fill="#D0C8C2"/>
<path id="Vector_24" fill-rule="evenodd" clip-rule="evenodd" d="M129.981 91.6537C129.901 91.6672 129.822 91.6769 129.739 91.6827C129.659 91.6895 129.575 91.6962 129.487 91.703V93.4338H127.92V86.5946H129.487C129.877 86.6016 130.244 86.6735 130.584 86.8114C130.924 86.9477 131.223 87.1314 131.481 87.3606C131.738 87.5927 131.938 87.8605 132.085 88.166C132.23 88.4696 132.304 88.7974 132.304 89.1465C132.304 89.5129 132.226 89.8533 132.073 90.1695C131.919 90.4847 131.702 90.7574 131.422 90.9865L132.925 93.4357H131.078L129.981 91.6537ZM129.49 90.1115C129.656 90.1047 129.817 90.0767 129.969 90.0215C130.12 89.9693 130.252 89.8997 130.368 89.8117C130.482 89.7247 130.571 89.6251 130.636 89.5091C130.7 89.393 130.733 89.2702 130.733 89.1397C130.733 89.0092 130.7 88.8873 130.636 88.7752C130.571 88.664 130.482 88.5634 130.368 88.4764C130.252 88.3884 130.12 88.3188 129.969 88.2666C129.817 88.2144 129.656 88.1834 129.49 88.1767V90.1115Z" fill="#D0C8C2"/>
<path id="Vector_25" fill-rule="evenodd" clip-rule="evenodd" d="M141.852 88.1467H139.047V89.1852H141.324V90.7661H139.047V91.85H141.852V93.4338H137.479V86.5752L141.852 86.5643V88.1467Z" fill="#D0C8C2"/>
<path id="Vector_26" fill-rule="evenodd" clip-rule="evenodd" d="M22.5736 48.3456H20.1258V49.2536H22.1122V50.6332H20.1258V51.5805H22.5736V52.9601H18.7568V46.9748L22.5736 46.9661V48.3456Z" fill="#D0C8C2"/>
<path id="Vector_27" fill-rule="evenodd" clip-rule="evenodd" d="M25.5152 53.0757C25.3267 53.0757 25.1383 53.0495 24.9519 52.9971C24.7657 52.9447 24.5881 52.864 24.4214 52.757C24.1289 52.5671 23.9015 52.3205 23.7412 52.017C23.5808 51.7136 23.4985 51.384 23.4985 51.0238H24.8675C24.8675 51.1876 24.9022 51.3142 24.9736 51.4037C25.043 51.4932 25.1059 51.5543 25.16 51.587C25.2575 51.6525 25.3636 51.6874 25.4762 51.694C25.5889 51.7005 25.7014 51.6787 25.8076 51.6285C25.8835 51.5957 25.9441 51.5543 25.9895 51.5062C26.0351 51.4583 26.0697 51.4102 26.0957 51.3644C26.1195 51.3185 26.1347 51.2727 26.1411 51.229C26.1477 51.1854 26.1499 51.1505 26.1499 51.1221C26.1499 51.0937 26.1477 51.0588 26.1411 51.0151C26.1368 50.9715 26.1217 50.9257 26.0957 50.8755C26.0719 50.8274 26.0372 50.7794 25.9895 50.7335C25.9441 50.6877 25.8835 50.644 25.8076 50.6069C25.7491 50.5807 25.6841 50.5546 25.617 50.5327C25.5498 50.5109 25.4783 50.4869 25.4025 50.4586C25.2682 50.4149 25.1275 50.3668 24.9802 50.3123C24.8351 50.2576 24.6877 50.1835 24.5426 50.0918C24.3541 49.9717 24.1939 49.8233 24.0639 49.6421C23.9339 49.4632 23.8408 49.2689 23.7845 49.0616C23.7281 48.8542 23.7087 48.6402 23.7281 48.4198C23.7476 48.1993 23.8083 47.9875 23.9101 47.7868C24.0076 47.6012 24.1289 47.4419 24.2741 47.3044C24.4191 47.169 24.5815 47.0599 24.7592 46.9813C24.9368 46.9027 25.1296 46.8547 25.3354 46.8394C25.5412 46.8241 25.7491 46.8416 25.9593 46.8962C26.165 46.9442 26.3491 47.0227 26.5159 47.1298C26.6827 47.2367 26.8256 47.3633 26.947 47.5139C27.0683 47.6646 27.1614 47.8304 27.2242 48.0159C27.2892 48.2015 27.3217 48.3936 27.3217 48.5966H25.9593C25.9593 48.4721 25.9203 48.3848 25.8423 48.3346C25.7643 48.2866 25.695 48.2539 25.6364 48.2364C25.6257 48.2364 25.5997 48.232 25.5585 48.2232C25.5173 48.2146 25.4718 48.2146 25.4199 48.2232C25.3679 48.232 25.3159 48.2495 25.2617 48.2801C25.2075 48.3106 25.1642 48.3586 25.1318 48.4219C25.0885 48.5093 25.0798 48.6009 25.108 48.6948C25.134 48.7908 25.1881 48.8651 25.2704 48.9196C25.3462 48.9632 25.4307 49.0026 25.5217 49.0375C25.6127 49.0725 25.7102 49.1073 25.8141 49.1402C25.9072 49.1663 25.9982 49.1968 26.0935 49.2296C26.1889 49.2623 26.282 49.2994 26.3795 49.343C26.7326 49.5068 27.0119 49.7469 27.2135 50.0613C27.4148 50.3778 27.5166 50.7292 27.5166 51.1155C27.5166 51.4976 27.4148 51.8445 27.2135 52.1611C27.0119 52.4776 26.7347 52.7155 26.3795 52.8792C26.2408 52.9447 26.0978 52.9927 25.9505 53.0212C25.8054 53.0604 25.6603 53.0757 25.5152 53.0757Z" fill="#D0C8C2"/>
<path id="Vector_28" fill-rule="evenodd" clip-rule="evenodd" d="M31.9808 46.9419V48.3215H30.8394V52.9599H29.4682V48.3215H28.3353V46.9419H31.9808Z" fill="#D0C8C2"/>
<path id="Vector_29" fill-rule="evenodd" clip-rule="evenodd" d="M34.2186 46.9419C34.6128 46.9638 34.9854 47.0598 35.3319 47.2278C35.6807 47.396 35.9839 47.6164 36.2395 47.8893C36.4973 48.1621 36.6987 48.4765 36.8482 48.8366C36.9976 49.1968 37.0714 49.5788 37.0714 49.9892C37.0714 50.3929 36.9976 50.7684 36.8525 51.1199C36.7074 51.4712 36.506 51.779 36.2481 52.0475C35.9926 52.3138 35.6893 52.5277 35.3449 52.6893C34.9983 52.8507 34.6236 52.9403 34.2186 52.9621H32.8496V46.9332H34.2186V46.9419ZM34.2186 51.5717C34.4286 51.5499 34.6258 51.4931 34.8056 51.4036C34.9875 51.3141 35.1435 51.1984 35.2756 51.0609C35.4077 50.9212 35.5117 50.7597 35.5876 50.5741C35.6633 50.3886 35.7001 50.1922 35.7001 49.987C35.7001 49.7753 35.6633 49.5722 35.5876 49.378C35.5117 49.1837 35.4056 49.0134 35.2712 48.8628C35.137 48.7123 34.9788 48.5899 34.8013 48.4961C34.6236 48.4001 34.4286 48.3433 34.2186 48.3215V51.5717Z" fill="#D0C8C2"/>
<path id="Vector_30" fill-rule="evenodd" clip-rule="evenodd" d="M106.834 46.9507H108.204V52.9599H106.834V49.1378L106.43 49.6442L105.366 48.7711L106.834 46.9507Z" fill="#D0C8C2"/>
<path id="Vector_31" d="M111.3 51.2858C111.029 51.2596 110.775 51.1831 110.537 51.061C110.298 50.9386 110.093 50.7815 109.917 50.5916C109.741 50.4017 109.603 50.1812 109.503 49.9302C109.404 49.6792 109.354 49.4129 109.354 49.1292C109.354 48.8301 109.41 48.5485 109.525 48.2844C109.638 48.0203 109.791 47.791 109.986 47.5946C110.182 47.3982 110.409 47.2432 110.671 47.1297C110.933 47.0162 111.212 46.9573 111.509 46.9573C111.806 46.9573 112.085 47.0139 112.344 47.1297C112.603 47.2432 112.831 47.3982 113.023 47.5946C113.218 47.791 113.372 48.0203 113.484 48.2844C113.597 48.5485 113.655 48.8301 113.655 49.1292C113.655 49.45 113.589 49.76 113.453 50.0612L111.995 52.96H110.463L111.3 51.2858ZM111.509 48.3389C111.401 48.3389 111.3 48.3585 111.207 48.4001C111.111 48.4416 111.029 48.4983 110.955 48.5725C110.881 48.6468 110.824 48.7297 110.784 48.8256C110.743 48.9218 110.724 49.0222 110.724 49.1313C110.724 49.2404 110.743 49.343 110.784 49.4369C110.824 49.5329 110.881 49.6158 110.955 49.6857C111.029 49.7556 111.111 49.8124 111.207 49.8539C111.302 49.8952 111.401 49.9149 111.509 49.9149C111.726 49.9149 111.911 49.8385 112.059 49.6857C112.211 49.5329 112.287 49.3474 112.287 49.1313C112.287 49.0222 112.267 48.9195 112.226 48.8256C112.185 48.7297 112.131 48.6468 112.059 48.5725C111.99 48.4983 111.908 48.4416 111.813 48.4001C111.719 48.3585 111.618 48.3389 111.509 48.3389Z" fill="#D0C8C2"/>
<path id="Vector_32" d="M111.3 51.2858C111.029 51.2596 110.775 51.1831 110.537 51.061C110.298 50.9386 110.093 50.7815 109.917 50.5916C109.741 50.4017 109.603 50.1812 109.503 49.9302C109.404 49.6792 109.354 49.4129 109.354 49.1292C109.354 48.8301 109.41 48.5485 109.525 48.2844C109.638 48.0203 109.791 47.791 109.986 47.5946C110.182 47.3982 110.409 47.2432 110.671 47.1297C110.933 47.0162 111.212 46.9573 111.509 46.9573C111.806 46.9573 112.085 47.0139 112.344 47.1297C112.603 47.2432 112.831 47.3982 113.023 47.5946C113.218 47.791 113.372 48.0203 113.484 48.2844C113.597 48.5485 113.655 48.8301 113.655 49.1292C113.655 49.45 113.589 49.76 113.453 50.0612L111.995 52.96H110.463L111.3 51.2858ZM111.509 48.3389C111.401 48.3389 111.3 48.3585 111.207 48.4001C111.111 48.4416 111.029 48.4983 110.955 48.5725C110.881 48.6468 110.824 48.7297 110.784 48.8256C110.743 48.9218 110.724 49.0222 110.724 49.1313C110.724 49.2404 110.743 49.343 110.784 49.4369C110.824 49.5329 110.881 49.6158 110.955 49.6857C111.029 49.7556 111.111 49.8124 111.207 49.8539C111.302 49.8952 111.401 49.9149 111.509 49.9149C111.726 49.9149 111.911 49.8385 112.059 49.6857C112.211 49.5329 112.287 49.3474 112.287 49.1313C112.287 49.0222 112.267 48.9195 112.226 48.8256C112.185 48.7297 112.131 48.6468 112.059 48.5725C111.99 48.4983 111.908 48.4416 111.813 48.4001C111.719 48.3585 111.618 48.3389 111.509 48.3389Z" fill="#D0C8C2"/>
<path id="Vector_33" fill-rule="evenodd" clip-rule="evenodd" d="M116.639 51.2858C116.368 51.2596 116.114 51.1831 115.877 51.061C115.638 50.9386 115.432 50.7815 115.256 50.5916C115.081 50.4017 114.942 50.1812 114.843 49.9302C114.743 49.6792 114.693 49.4129 114.693 49.1292C114.693 48.8301 114.749 48.5485 114.865 48.2844C114.978 48.0203 115.131 47.791 115.325 47.5946C115.521 47.3982 115.749 47.2432 116.01 47.1297C116.273 47.0162 116.552 46.9573 116.849 46.9573C117.146 46.9573 117.425 47.0139 117.683 47.1297C117.943 47.2432 118.168 47.3982 118.363 47.5946C118.559 47.791 118.712 48.0203 118.825 48.2844C118.937 48.5485 118.996 48.8301 118.996 49.1292C118.996 49.45 118.928 49.76 118.792 50.0612L117.334 52.96H115.803L116.639 51.2858ZM116.851 48.3389C116.743 48.3389 116.641 48.3585 116.548 48.4001C116.453 48.4416 116.37 48.4983 116.296 48.5725C116.222 48.6468 116.167 48.7297 116.125 48.8256C116.084 48.9218 116.065 49.0222 116.065 49.1313C116.065 49.2404 116.084 49.343 116.125 49.4369C116.167 49.5329 116.222 49.6158 116.296 49.6857C116.37 49.7556 116.453 49.8124 116.548 49.8539C116.643 49.8952 116.743 49.9149 116.851 49.9149C117.067 49.9149 117.252 49.8385 117.401 49.6857C117.553 49.5329 117.629 49.3474 117.629 49.1313C117.629 49.0222 117.609 48.9195 117.569 48.8256C117.526 48.7297 117.473 48.6468 117.401 48.5725C117.332 48.4983 117.25 48.4416 117.155 48.4001C117.059 48.3585 116.96 48.3389 116.851 48.3389Z" fill="#D0C8C2"/>
<path id="Vector_34" fill-rule="evenodd" clip-rule="evenodd" d="M121.98 51.2858C121.71 51.2596 121.456 51.1831 121.219 51.061C120.979 50.9386 120.774 50.7815 120.598 50.5916C120.423 50.4017 120.284 50.1812 120.184 49.9302C120.085 49.6792 120.036 49.4129 120.036 49.1292C120.036 48.8301 120.091 48.5485 120.206 48.2844C120.319 48.0203 120.472 47.791 120.667 47.5946C120.863 47.3982 121.09 47.2432 121.352 47.1297C121.614 47.0162 121.894 46.9573 122.19 46.9573C122.487 46.9573 122.767 47.0139 123.025 47.1297C123.284 47.2432 123.512 47.3982 123.705 47.5946C123.9 47.791 124.053 48.0203 124.166 48.2844C124.278 48.5485 124.337 48.8301 124.337 49.1292C124.337 49.45 124.269 49.76 124.134 50.0612L122.676 52.96H121.145L121.98 51.2858ZM122.19 48.3389C122.082 48.3389 121.98 48.3585 121.888 48.4001C121.792 48.4416 121.71 48.4983 121.636 48.5725C121.562 48.6468 121.506 48.7297 121.465 48.8256C121.424 48.9218 121.404 49.0222 121.404 49.1313C121.404 49.2404 121.424 49.343 121.465 49.4369C121.506 49.5329 121.562 49.6158 121.636 49.6857C121.71 49.7556 121.792 49.8124 121.888 49.8539C121.983 49.8952 122.082 49.9149 122.19 49.9149C122.406 49.9149 122.592 49.8385 122.741 49.6857C122.892 49.5329 122.968 49.3474 122.968 49.1313C122.968 49.0222 122.948 48.9195 122.908 48.8256C122.866 48.7297 122.812 48.6468 122.741 48.5725C122.672 48.4983 122.589 48.4416 122.494 48.4001C122.401 48.3585 122.299 48.3389 122.19 48.3389Z" fill="#D0C8C2"/>
<path id="Vector_35" fill-rule="evenodd" clip-rule="evenodd" d="M52.3228 58.0028V37.8681L62.0618 32.0344V14.1635L84.6491 0.636108V20.9236L94.3883 26.7572V58.0028H91.2789V28.5315L84.6491 24.5604V58.0028H81.5397V22.6979L74.9099 18.7268V24.336V58.0004H71.8011V29.8376L65.1708 33.8087V58.0028H62.0618V35.6713L55.4317 39.6423V58.0028H52.3228ZM65.1708 30.172L71.8011 26.2008V13.2275L81.5397 19.0611V6.13543L65.1708 15.9401V30.172Z" fill="#D0C8C2"/>
</g>
</svg>
