<svg width="119" height="87" viewBox="0 0 119 87" fill="none" xmlns="http://www.w3.org/2000/svg">
<g id="Group">
<path id="Vector" fill-rule="evenodd" clip-rule="evenodd" d="M67.7984 51.9437H64.9176V33.9882L67.7984 30.7603V51.9437ZM42.8018 52.7556H43.2042V25.3261L48.2628 19.6568L49.6378 21.1976V52.7575H54.1277V25.0151C52.9012 23.637 51.6727 22.2609 50.4425 20.8847V2.12094L60.5617 9.48283V21.3784C59.3326 22.5846 58.1046 23.7926 56.8762 25.0005V52.7575H61.3664V21.7202L67.7994 15.4017V29.545C66.5712 30.9213 65.343 32.2975 64.1148 33.6754C64.1148 39.7642 64.1109 45.8531 64.1148 51.9419V52.7556H68.6041V29.8597L69.9792 28.319L75.038 33.9882V52.7556H75.8427V33.6772C73.8904 31.4854 71.9334 29.2973 69.9792 27.1074L68.6041 28.6463V13.4812L61.3664 20.5881V9.0687C57.4572 6.2223 53.5467 3.37957 49.6378 0.536743V19.9841L48.2628 18.4453C46.3084 20.6351 44.3522 22.8233 42.3995 25.0151V52.7575H42.8018V52.7556ZM50.4425 22.0981L53.3232 25.3261V51.9437H50.4425V22.0981ZM60.5598 22.5122V51.9437H57.679V25.3405L60.5598 22.5122Z" fill="#D0C8C2"/>
<path id="Vector_2" fill-rule="evenodd" clip-rule="evenodd" d="M4.54319 69.9245C4.36794 69.9516 4.19269 69.9714 4.01744 69.9859C3.84218 69.9986 3.66165 70.0131 3.47209 70.0276V73.8038H0.0621338V58.8806H3.47392C4.32146 58.8951 5.11532 59.0506 5.8557 59.3508C6.59598 59.6511 7.24504 60.0525 7.80296 60.5515C8.36088 61.0543 8.79896 61.6402 9.11547 62.3076C9.43188 62.9712 9.58927 63.6856 9.58927 64.4469C9.58927 65.2461 9.42122 65.9912 9.08503 66.6784C8.74884 67.3656 8.27676 67.9569 7.67236 68.4615L10.9429 73.8038H6.92498L4.54319 69.9245ZM3.47392 66.5554C3.8369 66.541 4.18376 66.4777 4.51275 66.3619C4.84184 66.2462 5.13146 66.0924 5.37998 65.9026C5.6286 65.7127 5.82344 65.4902 5.9647 65.2389C6.10595 64.9876 6.17749 64.7181 6.17749 64.4324C6.17749 64.1466 6.10595 63.8808 5.9647 63.6368C5.82344 63.3926 5.6286 63.1737 5.37998 62.9839C5.13146 62.794 4.84184 62.6403 4.51275 62.5245C4.18376 62.4088 3.8369 62.3437 3.47392 62.331V66.5554Z" fill="#D0C8C2"/>
<path id="Vector_3" fill-rule="evenodd" clip-rule="evenodd" d="M22.1472 62.2695H16.0497V64.5355H20.9956V67.9859H16.0497V70.3531H22.1472V73.8038H12.6379V58.839L22.1472 58.8192V62.2695Z" fill="#D0C8C2"/>
<path id="Vector_4" fill-rule="evenodd" clip-rule="evenodd" d="M32.8063 73.8038L32.2216 71.9863H27.5582L26.952 73.8038H23.3381L28.3843 58.8192H31.6136L36.3986 73.8038H32.8063ZM28.7276 68.5356H31.1291L29.9578 64.9026L28.7276 68.5356Z" fill="#D0C8C2"/>
<path id="Vector_5" fill-rule="evenodd" clip-rule="evenodd" d="M46.6535 73.8037H37.8326V58.7975H41.2444V70.353H46.6535V73.8037Z" fill="#D0C8C2"/>
<path id="Vector_6" fill-rule="evenodd" clip-rule="evenodd" d="M61.1888 62.2695H55.0916V64.5355H60.0375V67.9859H55.0916V70.3531H61.1888V73.8038H51.6799V58.839L61.1888 58.8192V62.2695Z" fill="#D0C8C2"/>
<path id="Vector_7" fill-rule="evenodd" clip-rule="evenodd" d="M67.7696 74.0894C67.2991 74.0894 66.8305 74.0244 66.3657 73.8959C65.9009 73.7674 65.4611 73.5667 65.0444 73.2934C64.3184 72.818 63.7518 72.2012 63.3495 71.4453C62.9452 70.6894 62.7435 69.863 62.7435 68.9642H66.1544C66.1544 69.3729 66.2428 69.6894 66.4176 69.9136C66.5933 70.1379 66.7469 70.2916 66.8823 70.373C67.1243 70.5358 67.3865 70.6243 67.6698 70.6388C67.9521 70.6533 68.2277 70.5971 68.4975 70.4761C68.6848 70.3947 68.8375 70.2916 68.9517 70.1705C69.066 70.0475 69.1534 69.9281 69.2139 69.8124C69.2754 69.6967 69.3128 69.5845 69.3253 69.476C69.3397 69.3675 69.3445 69.279 69.3445 69.2102C69.3445 69.1415 69.3378 69.0528 69.3253 68.9443C69.3109 68.8358 69.2754 68.7201 69.2139 68.5972C69.1534 68.4742 69.066 68.3548 68.9517 68.2391C68.8375 68.1233 68.6848 68.0185 68.4975 67.9227C68.3487 67.8539 68.1912 67.7924 68.0232 67.7382C67.8551 67.6839 67.6765 67.6224 67.4883 67.5537C67.1522 67.4452 66.8017 67.3222 66.4387 67.1866C66.0757 67.051 65.7127 66.8665 65.3488 66.635C64.8782 66.3349 64.4807 65.9605 64.1571 65.5121C63.8334 65.0636 63.603 64.5789 63.4618 64.0618C63.3207 63.5446 63.2746 63.0111 63.3207 62.4595C63.3668 61.908 63.5194 61.3817 63.7749 60.8771C64.0159 60.4142 64.3203 60.0127 64.6833 59.6728C65.0463 59.3328 65.4506 59.0634 65.8942 58.8662C66.3369 58.6691 66.8142 58.5498 67.3279 58.5082C67.8388 58.4665 68.3573 58.5154 68.8816 58.651C69.3935 58.774 69.8544 58.9675 70.2673 59.2333C70.6841 59.4992 71.0423 59.8192 71.34 60.1936C71.6425 60.5679 71.8748 60.9856 72.0342 61.4486C72.1946 61.9116 72.2753 62.3943 72.2753 62.899H68.8816C68.8816 62.5861 68.7837 62.369 68.5888 62.2461C68.3938 62.1231 68.2219 62.0417 68.0731 62.002C68.0462 62.002 67.9819 61.9911 67.882 61.9712C67.7821 61.9514 67.6678 61.9514 67.5392 61.9712C67.4115 61.9911 67.2799 62.04 67.1455 62.1141C67.011 62.1882 66.9044 62.3076 66.8218 62.4721C66.7143 62.6892 66.6932 62.917 66.7613 63.1557C66.8286 63.3944 66.963 63.5806 67.1647 63.7163C67.3529 63.8248 67.5622 63.9243 67.7908 64.013C68.0203 64.1015 68.2613 64.1865 68.5167 64.2679C68.7462 64.3366 68.9786 64.4107 69.2129 64.4922C69.4482 64.5735 69.6825 64.6693 69.9264 64.7778C70.808 65.1865 71.5013 65.7851 72.0016 66.5736C72.5029 67.3639 72.7554 68.2409 72.7554 69.2066C72.7554 70.1596 72.5029 71.0295 72.0016 71.8197C71.5013 72.6102 70.808 73.2084 69.9264 73.6154C69.5788 73.7781 69.2235 73.8973 68.8605 73.9737C68.4975 74.0515 68.1326 74.0894 67.7696 74.0894Z" fill="#D0C8C2"/>
<path id="Vector_8" fill-rule="evenodd" clip-rule="evenodd" d="M83.1313 58.7578V62.2081H80.2869V73.8039H76.875V62.2081H74.048V58.7578H83.1313Z" fill="#D0C8C2"/>
<path id="Vector_9" fill-rule="evenodd" clip-rule="evenodd" d="M93.4879 73.8038L92.9031 71.9863H88.24L87.634 73.8038H84.0195L89.0658 58.8192H92.2952L97.0784 73.8038H93.4879ZM89.4115 68.5356H91.8122L90.6416 64.9026L89.4115 68.5356Z" fill="#D0C8C2"/>
<path id="Vector_10" fill-rule="evenodd" clip-rule="evenodd" d="M107.013 58.7578V62.2081H104.167V73.8039H100.756V62.2081H97.9292V58.7578H107.013Z" fill="#D0C8C2"/>
<path id="Vector_11" fill-rule="evenodd" clip-rule="evenodd" d="M118.177 62.2695H112.081V64.5355H117.026V67.9859H112.081V70.3531H118.177V73.8038H108.67V58.839L118.177 58.8192V62.2695Z" fill="#D0C8C2"/>
<path id="Vector_12" fill-rule="evenodd" clip-rule="evenodd" d="M2.36165 86.1909L3.01435 84.58L1.09033 80.4548H2.52259L3.68136 82.9283L4.66834 80.4548H6.07207L3.76538 86.1909H2.36165Z" fill="#D0C8C2"/>
<path id="Vector_13" fill-rule="evenodd" clip-rule="evenodd" d="M12.5397 80.4948C12.9276 80.4948 13.2924 80.5683 13.6339 80.7189C13.9755 80.8688 14.2741 81.0716 14.5298 81.3264C14.7855 81.5813 14.9857 81.8832 15.1342 82.2287C15.2826 82.5743 15.3559 82.9447 15.3559 83.3374C15.3559 83.73 15.2826 84.0984 15.1342 84.4456C14.9857 84.7917 14.7855 85.0934 14.5298 85.3487C14.2741 85.603 13.9755 85.807 13.6339 85.9559C13.2924 86.1058 12.9276 86.1802 12.5397 86.1802C12.1515 86.1802 11.7868 86.1058 11.4452 85.9559C11.1038 85.806 10.8068 85.603 10.553 85.3487C10.3009 85.0915 10.1007 84.7917 9.9522 84.4456C9.80374 84.1004 9.73047 83.73 9.73047 83.3374C9.73047 82.9447 9.80374 82.5743 9.9522 82.2287C10.1007 81.8832 10.2991 81.5813 10.553 81.3264C10.8051 81.0716 11.1038 80.8667 11.4452 80.7189C11.7885 80.5683 12.1515 80.4948 12.5397 80.4948ZM12.5431 84.8739C12.7524 84.8739 12.949 84.8343 13.1332 84.755C13.3174 84.6747 13.4784 84.5655 13.6161 84.4262C13.7538 84.287 13.8628 84.1236 13.9415 83.9379C14.0201 83.7513 14.0595 83.5522 14.0595 83.341C14.0595 83.1296 14.0201 82.9305 13.9415 82.7442C13.8628 82.5579 13.7538 82.395 13.6161 82.2559C13.4784 82.1167 13.3174 82.006 13.1332 81.9268C12.949 81.8468 12.7524 81.8075 12.5431 81.8075C12.334 81.8075 12.1373 81.8468 11.9531 81.9268C11.769 82.006 11.608 82.1167 11.4703 82.2559C11.3326 82.395 11.2235 82.5579 11.1449 82.7442C11.0662 82.9305 11.0268 83.1296 11.0268 83.341C11.0268 83.5522 11.0662 83.7513 11.1449 83.9379C11.2235 84.1236 11.3326 84.287 11.4703 84.4262C11.608 84.5655 11.769 84.6747 11.9531 84.755C12.1373 84.8343 12.334 84.8739 12.5431 84.8739Z" fill="#D0C8C2"/>
<path id="Vector_14" fill-rule="evenodd" clip-rule="evenodd" d="M21.162 86.1909C20.8759 86.1909 20.604 86.1387 20.3501 86.0313C20.0944 85.925 19.8673 85.7751 19.6671 85.5779C19.4632 85.3719 19.3058 85.1389 19.195 84.8797C19.0859 84.6206 19.0269 84.345 19.0233 84.0501V80.4912H20.318V84.0405C20.318 84.2687 20.402 84.4678 20.5701 84.637C20.7382 84.7985 20.9384 84.8778 21.1673 84.8778C21.28 84.8778 21.3872 84.8546 21.4892 84.8072C21.5911 84.7608 21.6805 84.6989 21.7574 84.6206C21.8343 84.5442 21.8932 84.4533 21.9344 84.3499C21.9755 84.2464 21.9953 84.1352 21.9953 84.0173V80.4912H23.2899V84.0095C23.2952 84.3044 23.2433 84.5829 23.1325 84.8469C23.0234 85.1108 22.8715 85.341 22.6801 85.5363C22.4887 85.7335 22.2634 85.8882 22.006 86.0043C21.7485 86.1203 21.4731 86.1822 21.1816 86.187L21.162 86.1909Z" fill="#D0C8C2"/>
<path id="Vector_15" fill-rule="evenodd" clip-rule="evenodd" d="M29.0458 84.7182C28.9796 84.7298 28.9135 84.7376 28.8473 84.7424C28.7812 84.7482 28.7115 84.753 28.6399 84.7588V86.1928H27.3453V80.5269H28.6399C28.9618 80.5326 29.264 80.5918 29.5448 80.706C29.8255 80.8203 30.0722 80.9716 30.285 81.1615C30.4977 81.3536 30.6622 81.5756 30.7839 81.829C30.9037 82.0802 30.9645 82.3515 30.9645 82.6413C30.9645 82.9447 30.9001 83.2267 30.7732 83.4894C30.6462 83.7494 30.4674 83.9756 30.2367 84.1652L31.4777 86.1937H29.9524L29.0458 84.7182ZM28.6382 83.4402C28.7759 83.4351 28.9082 83.4115 29.0333 83.3659C29.1584 83.3231 29.2675 83.2653 29.3623 83.1924C29.4571 83.1203 29.5305 83.0368 29.584 82.9411C29.6377 82.8455 29.6645 82.7442 29.6645 82.6356C29.6645 82.5271 29.6377 82.4258 29.584 82.3336C29.5305 82.2416 29.4571 82.158 29.3623 82.0859C29.2675 82.0139 29.1584 81.9553 29.0333 81.9124C28.9082 81.8689 28.7759 81.8432 28.6382 81.8383V83.4402Z" fill="#D0C8C2"/>
<path id="Vector_16" fill-rule="evenodd" clip-rule="evenodd" d="M39.8479 80.4784V81.789H38.7679V86.1909H37.4715V81.789H36.3986V80.4784H39.8479Z" fill="#D0C8C2"/>
<path id="Vector_17" fill-rule="evenodd" clip-rule="evenodd" d="M46.8949 86.1909L46.6732 85.5015H44.9029L44.6723 86.1909H43.3008L45.2176 80.502H46.4443L48.261 86.1909H46.8949ZM45.3464 84.1913H46.2584L45.8131 82.8113L45.3464 84.1913Z" fill="#D0C8C2"/>
<path id="Vector_18" fill-rule="evenodd" clip-rule="evenodd" d="M56.4936 86.1928H55.1901V86.0535C55.047 86.1058 54.9003 86.1425 54.7483 86.1657C54.5982 86.1889 54.448 86.1995 54.2996 86.1995C53.9365 86.1995 53.5825 86.129 53.2338 85.9897C52.8869 85.8505 52.574 85.6407 52.2987 85.3622C52.0234 85.0837 51.8177 84.7695 51.6818 84.4204C51.5458 84.0714 51.4779 83.7136 51.4779 83.3467C51.4779 82.979 51.5458 82.6193 51.6818 82.2688C51.8177 81.9175 52.0234 81.6013 52.2987 81.3228C52.574 81.0444 52.8869 80.8345 53.2338 80.6954C53.5807 80.5561 53.9365 80.4855 54.2996 80.4855C54.6626 80.4855 55.0166 80.5561 55.3653 80.6954C55.7122 80.8345 56.0251 81.0444 56.3004 81.3228L55.3814 82.2523C55.233 82.1023 55.0648 81.9903 54.8753 81.916C54.6857 81.8419 54.4944 81.804 54.3013 81.804C54.1064 81.804 53.9151 81.8419 53.7274 81.916C53.5378 81.9903 53.3698 82.1038 53.2213 82.2523C53.0729 82.4022 52.9602 82.5721 52.8834 82.7641C52.8065 82.9555 52.7689 83.1489 52.7689 83.3445C52.7689 83.5415 52.8065 83.7349 52.8834 83.9244C52.9602 84.1168 53.0729 84.287 53.2213 84.4369C53.3536 84.5713 53.5038 84.6747 53.6701 84.7511C53.8364 84.8256 54.0082 84.871 54.1833 84.8836C54.3604 84.8961 54.5338 84.8797 54.7091 84.8333C54.8825 84.7859 55.0434 84.7076 55.1918 84.5993V84.3121H54.0654V83.0025H56.4936V86.1928Z" fill="#D0C8C2"/>
<path id="Vector_19" fill-rule="evenodd" clip-rule="evenodd" d="M63.7336 86.1908H60.3832V80.4948H61.6796V84.8816H63.7336V86.1908Z" fill="#D0C8C2"/>
<path id="Vector_20" fill-rule="evenodd" clip-rule="evenodd" d="M68.8336 86.1908H67.5392V80.4948H68.8336V86.1908Z" fill="#D0C8C2"/>
<path id="Vector_21" fill-rule="evenodd" clip-rule="evenodd" d="M76.1183 80.502H77.4127V86.1909H76.0107L74.1708 82.8741V86.1909H72.8763V80.5184H74.2851L76.1183 83.8268V80.502Z" fill="#D0C8C2"/>
<path id="Vector_22" fill-rule="evenodd" clip-rule="evenodd" d="M84.9289 81.8126H82.6127V82.6721H84.492V83.9825H82.6127V84.8817H84.9289V86.1909H81.3182V80.5091L84.9289 80.502V81.8126Z" fill="#D0C8C2"/>
<path id="Vector_23" fill-rule="evenodd" clip-rule="evenodd" d="M92.9636 80.502H94.259V86.1909H92.9636V84.0443H91.3388V86.1909H90.0443V80.502H91.3388V82.735H92.9636V80.502Z" fill="#D0C8C2"/>
<path id="Vector_24" fill-rule="evenodd" clip-rule="evenodd" d="M101.712 81.8126H99.3975V82.6721H101.276V83.9825H99.3975V84.8817H101.712V86.1909H98.103V80.5091L101.712 80.502V81.8126Z" fill="#D0C8C2"/>
<path id="Vector_25" fill-rule="evenodd" clip-rule="evenodd" d="M107.357 84.7182C107.29 84.7298 107.225 84.7376 107.157 84.7424C107.09 84.7482 107.021 84.753 106.949 84.7588V86.1928H105.655V80.5269H106.949C107.271 80.5326 107.573 80.5918 107.854 80.706C108.135 80.8203 108.382 80.9716 108.594 81.1615C108.806 81.3536 108.971 81.5756 109.093 81.829C109.212 82.0802 109.274 82.3515 109.274 82.6413C109.274 82.9447 109.21 83.2267 109.083 83.4894C108.955 83.7494 108.777 83.9756 108.546 84.1652L109.787 86.1937H108.262L107.357 84.7182ZM106.951 83.4402C107.088 83.4351 107.221 83.4115 107.347 83.3659C107.472 83.3231 107.58 83.2653 107.675 83.1924C107.77 83.1203 107.843 83.0368 107.897 82.9411C107.951 82.8455 107.978 82.7442 107.978 82.6356C107.978 82.5271 107.951 82.4258 107.897 82.3336C107.843 82.2416 107.77 82.158 107.675 82.0859C107.58 82.0139 107.472 81.9553 107.347 81.9124C107.221 81.8689 107.088 81.8432 106.951 81.8383V83.4402Z" fill="#D0C8C2"/>
<path id="Vector_26" fill-rule="evenodd" clip-rule="evenodd" d="M117.155 81.8126H114.84V82.6721H116.72V83.9825H114.84V84.8817H117.155V86.1909H113.545V80.5091L117.155 80.502V81.8126Z" fill="#D0C8C2"/>
<path id="Vector_27" fill-rule="evenodd" clip-rule="evenodd" d="M18.6908 48.8388H16.6702V49.5892H18.3099V50.734H16.6702V51.5188H18.6908V52.6617H15.5402V47.7031L18.6908 47.6959V48.8388Z" fill="#D0C8C2"/>
<path id="Vector_28" fill-rule="evenodd" clip-rule="evenodd" d="M21.1191 52.7556C20.9635 52.7556 20.808 52.734 20.6542 52.6906C20.5005 52.6471 20.3538 52.5821 20.2161 52.4917C19.9747 52.3342 19.7888 52.1299 19.6546 51.8786C19.5205 51.6291 19.4543 51.3542 19.4543 51.0558H20.5845C20.5845 51.1914 20.6131 51.2964 20.6721 51.3704C20.7293 51.4446 20.7812 51.4953 20.8258 51.5223C20.9064 51.5766 20.994 51.6055 21.0869 51.6109C21.1799 51.6146 21.2729 51.5983 21.3605 51.5568C21.4231 51.5296 21.4731 51.4953 21.5107 51.4554C21.5482 51.4157 21.5769 51.3758 21.5984 51.3378C21.6179 51.2999 21.6305 51.2619 21.6359 51.2258C21.6395 51.1896 21.643 51.1607 21.643 51.1371C21.643 51.1155 21.6413 51.0847 21.6359 51.0485C21.6323 51.0124 21.6198 50.9744 21.5984 50.9328C21.5787 50.893 21.5501 50.8532 21.5107 50.8152C21.4731 50.7773 21.4231 50.7412 21.3605 50.7104C21.3122 50.6887 21.2585 50.667 21.2032 50.6489C21.1477 50.6308 21.0887 50.6109 21.0261 50.5874C20.9152 50.5513 20.799 50.5114 20.6775 50.4663C20.5576 50.4211 20.436 50.3595 20.3163 50.2836C20.1606 50.1841 20.0283 50.0612 19.921 49.9111C19.8138 49.7628 19.7369 49.6018 19.6904 49.4301C19.6439 49.2583 19.6278 49.081 19.6439 48.8984C19.6599 48.7158 19.7101 48.5404 19.7941 48.374C19.8746 48.2202 19.9747 48.0882 20.0946 47.9743C20.2143 47.8622 20.3485 47.7718 20.4951 47.7067C20.6416 47.6416 20.8008 47.6018 20.9707 47.5891C21.1406 47.5764 21.3122 47.5909 21.4856 47.6362C21.6556 47.6759 21.8075 47.741 21.9452 47.8296C22.0829 47.9182 22.2009 48.0232 22.3011 48.1479C22.4012 48.2727 22.4781 48.4101 22.5299 48.5639C22.5836 48.7175 22.6104 48.8767 22.6104 49.0449H21.4856C21.4856 48.9418 21.4535 48.8694 21.3891 48.8278C21.3248 48.7881 21.2675 48.7609 21.2192 48.7465C21.2103 48.7465 21.1888 48.7428 21.1549 48.7357C21.1209 48.7284 21.0834 48.7284 21.0404 48.7357C20.9975 48.7428 20.9546 48.7573 20.9098 48.7827C20.8652 48.808 20.8295 48.8477 20.8026 48.9002C20.7669 48.9725 20.7597 49.0485 20.7829 49.1263C20.8044 49.2058 20.8491 49.2673 20.917 49.3125C20.9797 49.3487 21.0494 49.3813 21.1245 49.4102C21.1996 49.4391 21.28 49.468 21.3659 49.4952C21.441 49.5168 21.5179 49.5422 21.5965 49.5693C21.6752 49.5964 21.7521 49.6272 21.8326 49.6633C22.124 49.7989 22.3547 49.9979 22.521 50.2583C22.6873 50.5205 22.7713 50.8117 22.7713 51.1317C22.7713 51.4483 22.6873 51.7357 22.521 51.998C22.3547 52.2602 22.1258 52.4572 21.8326 52.5929C21.7181 52.6471 21.6001 52.687 21.4785 52.7105C21.3605 52.7448 21.2389 52.7556 21.1191 52.7556Z" fill="#D0C8C2"/>
<path id="Vector_29" fill-rule="evenodd" clip-rule="evenodd" d="M26.4566 47.6759V48.8188H25.5143V52.6616H24.3824V48.8188H23.4473V47.6759H26.4566Z" fill="#D0C8C2"/>
<path id="Vector_30" fill-rule="evenodd" clip-rule="evenodd" d="M28.3038 47.6759C28.6293 47.6939 28.9368 47.7736 29.2229 47.9128C29.5108 48.0521 29.7611 48.2347 29.9722 48.4607C30.1831 48.6868 30.3512 48.9472 30.4747 49.2456C30.598 49.5439 30.6588 49.8605 30.6588 50.2004C30.6588 50.535 30.598 50.846 30.4781 51.1371C30.3584 51.4284 30.1921 51.6833 29.9794 51.9057C29.7683 52.1264 29.5179 52.3036 29.2336 52.4373C28.9475 52.5712 28.6382 52.6454 28.3038 52.6634H27.1737V47.6705H28.3038V47.6759ZM28.3038 51.5115C28.4773 51.4934 28.64 51.4463 28.7884 51.3723C28.9386 51.2981 29.0674 51.2022 29.1765 51.0883C29.2855 50.9725 29.3713 50.8388 29.4339 50.6851C29.4964 50.5313 29.5269 50.3686 29.5269 50.1986C29.5269 50.0232 29.4964 49.8551 29.4339 49.6941C29.3713 49.5331 29.2837 49.3921 29.1728 49.2673C29.062 49.1426 28.9314 49.0412 28.7848 48.9635C28.6382 48.8839 28.4773 48.8368 28.3038 48.8188V51.5115Z" fill="#D0C8C2"/>
<path id="Vector_31" fill-rule="evenodd" clip-rule="evenodd" d="M88.2496 47.6814H89.3789V52.6617H88.2496V49.4952L87.9144 49.9148L87.0358 49.1914L88.2496 47.6814Z" fill="#D0C8C2"/>
<path id="Vector_32" fill-rule="evenodd" clip-rule="evenodd" d="M91.9342 51.2746C91.7105 51.2529 91.5011 51.1896 91.3043 51.0882C91.1084 50.987 90.9384 50.8569 90.7934 50.6995C90.6484 50.5421 90.5341 50.3595 90.4515 50.1515C90.3699 49.9436 90.3286 49.723 90.3286 49.4879C90.3286 49.2402 90.3757 49.0069 90.4698 48.7881C90.5629 48.5692 90.6897 48.3793 90.851 48.2165C91.0114 48.0539 91.1996 47.9255 91.4157 47.8314C91.6317 47.7373 91.8631 47.6885 92.1071 47.6885C92.3529 47.6885 92.5834 47.7356 92.7965 47.8314C93.0107 47.9255 93.197 48.0539 93.3583 48.2165C93.5187 48.3793 93.6454 48.5692 93.7386 48.7881C93.8317 49.0069 93.8797 49.2402 93.8797 49.4879C93.8797 49.7537 93.824 50.0105 93.7117 50.2601L92.5085 52.6616H91.2438L91.9342 51.2746ZM92.1071 48.8314C92.0187 48.8314 91.9342 48.8477 91.8574 48.882C91.7786 48.9165 91.7105 48.9634 91.65 49.0249C91.5885 49.0863 91.5434 49.1551 91.5088 49.2348C91.4742 49.3142 91.4589 49.3975 91.4589 49.4879C91.4589 49.5783 91.4742 49.6633 91.5088 49.741C91.5434 49.8206 91.5885 49.8894 91.65 49.9472C91.7105 50.005 91.7786 50.0521 91.8574 50.0864C91.9361 50.1208 92.0187 50.1371 92.1071 50.1371C92.2866 50.1371 92.4384 50.0738 92.5622 49.9472C92.6871 49.8206 92.7495 49.6669 92.7495 49.4879C92.7495 49.3975 92.7332 49.3125 92.6995 49.2348C92.665 49.1551 92.6208 49.0863 92.5622 49.0249C92.5046 48.9634 92.4374 48.9165 92.3577 48.882C92.2818 48.8495 92.1973 48.8314 92.1071 48.8314Z" fill="#D0C8C2"/>
<path id="Vector_33" fill-rule="evenodd" clip-rule="evenodd" d="M96.3418 51.2746C96.118 51.2529 95.9087 51.1896 95.7119 51.0882C95.516 50.987 95.346 50.8569 95.201 50.6995C95.056 50.5421 94.9417 50.3595 94.8591 50.1515C94.7775 49.9436 94.7362 49.723 94.7362 49.4879C94.7362 49.2402 94.7833 49.0069 94.8774 48.7881C94.9705 48.5692 95.0973 48.3793 95.2586 48.2165C95.4199 48.0539 95.6072 47.9255 95.8232 47.8314C96.0393 47.7373 96.2707 47.6885 96.5147 47.6885C96.7605 47.6885 96.991 47.7356 97.2041 47.8314C97.4183 47.9255 97.6046 48.0539 97.7659 48.2165C97.9263 48.3793 98.053 48.5692 98.1462 48.7881C98.2393 49.0069 98.2873 49.2402 98.2873 49.4879C98.2873 49.7537 98.2326 50.0105 98.1193 50.2601L96.916 52.6616H95.6514L96.3418 51.2746ZM96.5175 48.8314C96.4282 48.8314 96.3437 48.8477 96.2669 48.882C96.1882 48.9165 96.12 48.9634 96.0595 49.0249C95.999 49.0863 95.9519 49.1551 95.9183 49.2348C95.8837 49.3142 95.8674 49.3975 95.8674 49.4879C95.8674 49.5783 95.8837 49.6633 95.9183 49.741C95.9519 49.8206 95.999 49.8894 96.0595 49.9472C96.12 50.005 96.1882 50.0521 96.2669 50.0864C96.3456 50.1208 96.4282 50.1371 96.5175 50.1371C96.6961 50.1371 96.8479 50.0738 96.9708 49.9472C97.0966 49.8206 97.159 49.6669 97.159 49.4879C97.159 49.3975 97.1427 49.3125 97.1091 49.2348C97.0755 49.1551 97.0303 49.0863 96.9708 49.0249C96.9141 48.9634 96.8459 48.9165 96.7672 48.882C96.6894 48.8495 96.6059 48.8314 96.5175 48.8314Z" fill="#D0C8C2"/>
<path id="Vector_34" fill-rule="evenodd" clip-rule="evenodd" d="M100.751 51.2746C100.528 51.2529 100.318 51.1896 100.122 51.0882C99.9256 50.987 99.7556 50.8569 99.6106 50.6995C99.4656 50.5421 99.3514 50.3595 99.2688 50.1515C99.1872 49.9436 99.1459 49.723 99.1459 49.4879C99.1459 49.2402 99.192 49.0069 99.287 48.7881C99.3802 48.5692 99.5069 48.3793 99.6683 48.2165C99.8286 48.0539 100.017 47.9255 100.233 47.8314C100.449 47.7373 100.68 47.6885 100.925 47.6885C101.169 47.6885 101.401 47.7356 101.613 47.8314C101.828 47.9255 102.015 48.0539 102.175 48.2165C102.336 48.3793 102.463 48.5692 102.556 48.7881C102.649 49.0069 102.697 49.2402 102.697 49.4879C102.697 49.7537 102.641 50.0105 102.529 50.2601L101.325 52.6616H100.061L100.751 51.2746ZM100.925 48.8314C100.836 48.8314 100.751 48.8477 100.675 48.882C100.596 48.9165 100.528 48.9634 100.467 49.0249C100.407 49.0863 100.36 49.1551 100.326 49.2348C100.291 49.3142 100.275 49.3975 100.275 49.4879C100.275 49.5783 100.291 49.6633 100.326 49.741C100.36 49.8188 100.407 49.8894 100.467 49.9472C100.528 50.005 100.596 50.0521 100.675 50.0864C100.753 50.1208 100.836 50.1371 100.925 50.1371C101.104 50.1371 101.256 50.0738 101.379 49.9472C101.504 49.8206 101.567 49.6669 101.567 49.4879C101.567 49.3975 101.55 49.3125 101.517 49.2348C101.483 49.1551 101.438 49.0863 101.379 49.0249C101.322 48.9634 101.254 48.9165 101.175 48.882C101.098 48.8495 101.014 48.8314 100.925 48.8314Z" fill="#D0C8C2"/>
</g>
</svg>
