<svg width="144" height="95" viewBox="0 0 144 95" fill="none" xmlns="http://www.w3.org/2000/svg">
<g id="Group">
<path id="Vector" fill-rule="evenodd" clip-rule="evenodd" d="M6.38872 75.0495C6.15653 75.0852 5.92423 75.1115 5.69204 75.1307C5.45984 75.1473 5.22054 75.1665 4.96933 75.1856V80.1711H0.450439V60.4666H4.97173C6.09488 60.4857 7.14706 60.6911 8.12808 61.0874C9.1091 61.4838 9.96922 62.0139 10.7086 62.673C11.4479 63.3368 12.0285 64.1106 12.4479 64.9916C12.8674 65.868 13.0758 66.8113 13.0758 67.8165C13.0758 68.8719 12.853 69.8558 12.4076 70.7632C11.9621 71.6706 11.3365 72.4514 10.5356 73.1177L14.8696 80.1711H9.54507L6.38872 75.0495ZM4.97173 70.6032C5.45274 70.5841 5.91242 70.5005 6.34849 70.3477C6.78445 70.1949 7.16837 69.9919 7.49775 69.7412C7.82713 69.4904 8.08534 69.1967 8.2726 68.8648C8.45976 68.5329 8.55454 68.1771 8.55454 67.7998C8.55454 67.4224 8.45976 67.0715 8.2726 66.7491C8.08534 66.4244 7.82713 66.1378 7.49775 65.8871C7.16837 65.6364 6.78445 65.4334 6.34849 65.2806C5.91242 65.1278 5.45274 65.0418 4.97173 65.0251V70.6032Z" fill="#D0C8C2"/>
<path id="Vector_2" fill-rule="evenodd" clip-rule="evenodd" d="M27.2039 64.5571H19.8175V67.2921H25.8089V71.4569H19.8175V74.3142H27.2039V78.4787H15.6846V60.4163L27.2039 60.3923V64.5571Z" fill="#D0C8C2"/>
<path id="Vector_3" fill-rule="evenodd" clip-rule="evenodd" d="M40.1161 78.4787L39.4078 76.2852H33.7586L33.0242 78.4787H28.6466L34.7594 60.3923H38.6713L44.4678 78.4787H40.1161ZM35.1753 72.1227H38.0842L36.6655 67.7374L35.1753 72.1227Z" fill="#D0C8C2"/>
<path id="Vector_4" fill-rule="evenodd" clip-rule="evenodd" d="M56.8904 78.4787H46.2051V60.3684H50.3379V74.3143H56.8904V78.4787Z" fill="#D0C8C2"/>
<path id="Vector_5" fill-rule="evenodd" clip-rule="evenodd" d="M74.4987 64.5571H67.1122V67.2921H73.1034V71.4569H67.1122V74.3142H74.4987V78.4787H62.9794V60.4163L74.4987 60.3923V64.5571Z" fill="#D0C8C2"/>
<path id="Vector_6" fill-rule="evenodd" clip-rule="evenodd" d="M82.47 78.8236C81.9006 78.8236 81.3321 78.7455 80.7693 78.59C80.2066 78.4331 79.6737 78.191 79.1686 77.8635C78.2889 77.2893 77.6023 76.5451 77.1155 75.6326C76.6257 74.7202 76.3809 73.7227 76.3809 72.6379H80.5139C80.5139 73.1312 80.6205 73.5131 80.8327 73.7839C81.0449 74.0544 81.2312 74.24 81.3954 74.3383C81.6883 74.5348 82.0062 74.6417 82.349 74.6591C82.6909 74.6765 83.0241 74.6089 83.3515 74.4626C83.5791 74.3644 83.7635 74.24 83.9018 74.0938C84.0401 73.9453 84.1467 73.8013 84.2206 73.6616C84.2945 73.5219 84.3397 73.3866 84.3541 73.2555C84.3723 73.1246 84.3781 73.0177 84.3781 72.9346C84.3781 72.8518 84.3694 72.7448 84.3541 72.6139C84.3397 72.4829 84.2945 72.3432 84.2206 72.1947C84.1467 72.0463 84.0401 71.9023 83.9018 71.7625C83.7635 71.6229 83.5791 71.4962 83.3515 71.3806C83.172 71.2976 82.9809 71.2256 82.7773 71.1579C82.5737 71.0902 82.3567 71.0182 82.1301 70.9352C81.7229 70.8043 81.2975 70.6559 80.8587 70.4922C80.4188 70.3284 79.979 70.1058 79.5373 69.8265C78.9669 69.4641 78.4858 69.0122 78.095 68.4709C77.7022 67.9296 77.4228 67.3446 77.2518 66.7225C77.0809 66.0982 77.0243 65.4543 77.0809 64.7886C77.1366 64.1227 77.321 63.4876 77.6311 62.8786C77.9231 62.3197 78.2918 61.8351 78.7307 61.4248C79.1705 61.0144 79.6602 60.6892 80.198 60.4513C80.7348 60.2134 81.3157 60.0692 81.9351 60.0191C82.5545 59.9689 83.1825 60.0279 83.8173 60.1916C84.4367 60.34 84.9955 60.5735 85.4959 60.8944C86 61.2153 86.434 61.6016 86.7961 62.0535C87.1619 62.5053 87.4433 63.0095 87.6354 63.5683C87.8313 64.1272 87.9292 64.7099 87.9292 65.3189H83.8173C83.8173 64.9413 83.6982 64.6794 83.462 64.531C83.2257 64.3826 83.0183 64.2843 82.8378 64.2363C82.8061 64.2363 82.7283 64.2232 82.6064 64.1991C82.4844 64.1752 82.3461 64.1752 82.1906 64.1991C82.035 64.2232 81.8765 64.2821 81.7143 64.3716C81.552 64.4611 81.4214 64.6051 81.3215 64.8037C81.1919 65.0658 81.1679 65.3429 81.2476 65.6289C81.3301 65.917 81.4934 66.1419 81.7383 66.3056C81.9659 66.4366 82.2184 66.5566 82.4959 66.6635C82.7735 66.7705 83.0654 66.873 83.3756 66.9714C83.6521 67.0542 83.9344 67.1438 84.2177 67.2419C84.5039 67.3402 84.7881 67.4559 85.082 67.5869C86.1508 68.0801 86.99 68.8026 87.5969 69.7543C88.2038 70.7061 88.5092 71.767 88.5092 72.9325C88.5092 74.0828 88.2038 75.1349 87.5969 76.0867C86.99 77.0384 86.1508 77.7631 85.082 78.2544C84.6623 78.4509 84.2312 78.5947 83.7914 78.6867C83.3515 78.7803 82.9098 78.8236 82.47 78.8236Z" fill="#D0C8C2"/>
<path id="Vector_7" fill-rule="evenodd" clip-rule="evenodd" d="M101.078 60.3181V64.4829H97.6319V78.4787H93.4998V64.4829H90.0754V60.3181H101.078Z" fill="#D0C8C2"/>
<path id="Vector_8" fill-rule="evenodd" clip-rule="evenodd" d="M113.625 78.4787L112.917 76.2852H107.267L106.534 78.4787H102.156L108.268 60.3923H112.18L117.974 78.4787H113.625ZM108.687 72.1227H111.595L110.177 67.7374L108.687 72.1227Z" fill="#D0C8C2"/>
<path id="Vector_9" fill-rule="evenodd" clip-rule="evenodd" d="M130.01 60.3181V64.4829H126.561V78.4787H122.428V64.4829H119.006V60.3181H130.01Z" fill="#D0C8C2"/>
<path id="Vector_10" fill-rule="evenodd" clip-rule="evenodd" d="M143.532 64.5571H136.148V67.2921H142.139V71.4569H136.148V74.3142H143.532V78.4787H132.015V60.4163L143.532 60.3923V64.5571Z" fill="#D0C8C2"/>
<path id="Vector_11" fill-rule="evenodd" clip-rule="evenodd" d="M3.23602 93.4338L4.02672 91.4864L1.69592 86.5095H3.43096L4.83249 89.4936L6.03034 86.5095H7.73071L4.93639 93.4338H3.23602Z" fill="#D0C8C2"/>
<path id="Vector_12" fill-rule="evenodd" clip-rule="evenodd" d="M15.5654 86.5551C16.0355 86.5551 16.4774 86.6448 16.8911 86.8259C17.3049 87.0077 17.6666 87.2523 17.9763 87.5598C18.2861 87.8673 18.5288 88.2318 18.7085 88.6485C18.8883 89.0653 18.977 89.5129 18.977 89.9867C18.977 90.4605 18.8883 90.9072 18.7085 91.3249C18.5288 91.7417 18.2861 92.1062 17.9763 92.4146C17.6666 92.7221 17.3049 92.9687 16.8911 93.1476C16.4774 93.3284 16.0355 93.4183 15.5654 93.4183C15.0955 93.4183 14.6535 93.3284 14.2399 93.1476C13.8261 92.9668 13.4665 92.7221 13.159 92.4146C12.8535 92.1062 12.6109 91.7417 12.4312 91.3249C12.2514 90.9072 12.1625 90.4605 12.1625 89.9867C12.1625 89.5129 12.2514 89.0682 12.4312 88.6485C12.6109 88.2318 12.8514 87.8673 13.159 87.5598C13.4643 87.2523 13.8261 87.0048 14.2399 86.8259C14.6535 86.6471 15.0955 86.5551 15.5654 86.5551ZM15.5697 91.8422C15.8233 91.8422 16.0615 91.7939 16.2847 91.6982C16.5077 91.6024 16.7027 91.469 16.8695 91.3008C17.0362 91.1325 17.1683 90.9362 17.2637 90.7109C17.359 90.4866 17.4067 90.2468 17.4067 89.9916C17.4067 89.7363 17.359 89.4955 17.2637 89.2702C17.1683 89.0459 17.0362 88.8496 16.8695 88.6814C16.7027 88.5131 16.5077 88.3807 16.2847 88.284C16.0615 88.1873 15.8233 88.1399 15.5697 88.1399C15.3164 88.1399 15.0781 88.1873 14.855 88.284C14.6319 88.3807 14.4369 88.5131 14.2701 88.6814C14.1033 88.8496 13.9712 89.0459 13.8759 89.2702C13.7806 89.4955 13.7329 89.7363 13.7329 89.9916C13.7329 90.2468 13.7806 90.4866 13.8759 90.7109C13.9712 90.9362 14.1033 91.1325 14.2701 91.3008C14.4369 91.469 14.6319 91.6024 14.855 91.6982C15.0781 91.7939 15.3164 91.8422 15.5697 91.8422Z" fill="#D0C8C2"/>
<path id="Vector_13" fill-rule="evenodd" clip-rule="evenodd" d="M26.0104 93.4338C25.6638 93.4338 25.3346 93.37 25.0271 93.2414C24.7173 93.1128 24.4422 92.9319 24.2017 92.6931C23.9547 92.4446 23.7641 92.1633 23.6299 91.85C23.4977 91.5386 23.4263 91.205 23.4219 90.8492V86.5551H24.9902V90.8405C24.9902 91.1151 25.092 91.3559 25.2956 91.5609C25.4992 91.7543 25.7418 91.85 26.0191 91.85C26.1555 91.85 26.2855 91.8229 26.409 91.7659C26.5325 91.7088 26.6408 91.6343 26.7339 91.5415C26.827 91.4468 26.8986 91.3375 26.9483 91.2128C26.9982 91.089 27.0221 90.9536 27.0221 90.8115V86.5551H28.5902V90.8038C28.5967 91.1586 28.5339 91.4951 28.3996 91.8132C28.2676 92.1323 28.0834 92.4098 27.8516 92.6457C27.6198 92.8826 27.3469 93.0712 27.035 93.2104C26.7231 93.3497 26.3894 93.4241 26.0364 93.4309L26.0104 93.4338Z" fill="#D0C8C2"/>
<path id="Vector_14" fill-rule="evenodd" clip-rule="evenodd" d="M35.5587 91.6537C35.4785 91.6672 35.3983 91.6769 35.3181 91.6827C35.238 91.6895 35.1535 91.6962 35.0669 91.703V93.4338H33.4987V86.5946H35.0669C35.4568 86.6016 35.8228 86.6735 36.163 86.8114C36.503 86.9477 36.8019 87.1314 37.0597 87.3606C37.3174 87.5927 37.5168 87.8605 37.664 88.166C37.8092 88.4696 37.8827 88.7974 37.8827 89.1465C37.8827 89.5129 37.8048 89.8533 37.6511 90.1695C37.4972 90.4847 37.2806 90.7574 37.0012 90.9865L38.5045 93.4357H36.6568L35.5587 91.6537ZM35.0669 90.1115C35.2337 90.1047 35.394 90.0767 35.5456 90.0215C35.6972 89.9693 35.8294 89.8997 35.9442 89.8117C36.059 89.7247 36.1478 89.6251 36.2127 89.5091C36.2777 89.393 36.3103 89.2702 36.3103 89.1397C36.3103 89.0092 36.2777 88.8873 36.2127 88.7752C36.1478 88.664 36.059 88.5634 35.9442 88.4764C35.8294 88.3884 35.6972 88.3188 35.5456 88.2666C35.394 88.2144 35.2337 88.1834 35.0669 88.1767V90.1115Z" fill="#D0C8C2"/>
<path id="Vector_15" fill-rule="evenodd" clip-rule="evenodd" d="M48.6461 86.5381V88.1176H47.3379V93.4337H45.7674V88.1176H44.4678V86.5381H48.6461Z" fill="#D0C8C2"/>
<path id="Vector_16" fill-rule="evenodd" clip-rule="evenodd" d="M57.1828 93.4338L56.9142 92.6013H54.7698L54.4904 93.4338H52.829L55.151 86.566H56.637L58.8377 93.4338H57.1828ZM55.307 91.0195H56.4117L55.8724 89.3544L55.307 91.0195Z" fill="#D0C8C2"/>
<path id="Vector_17" fill-rule="evenodd" clip-rule="evenodd" d="M68.8105 89.5874V93.4338H67.2314V93.2646C67.0581 93.3284 66.8805 93.3729 66.6985 93.3999C66.5166 93.4289 66.3346 93.4425 66.1548 93.4425C65.7151 93.4425 65.2862 93.3574 64.8638 93.1891C64.4436 93.0209 64.0646 92.7676 63.731 92.4311C63.3974 92.0956 63.1484 91.7156 62.9837 91.294C62.8191 90.8734 62.7367 90.4402 62.7367 89.9974C62.7367 89.5545 62.8191 89.1204 62.9837 88.6969C63.1484 88.2733 63.3974 87.8914 63.731 87.5549C64.0646 87.2184 64.4436 86.9661 64.8638 86.7978C65.2841 86.6294 65.7151 86.5443 66.1548 86.5443C66.5945 86.5443 67.0235 86.6294 67.4458 86.7978C67.8661 86.9661 68.2452 87.2184 68.5788 87.5549L67.4653 88.6775C67.2855 88.4957 67.082 88.3604 66.8523 88.2714C66.6228 88.1815 66.3909 88.136 66.1548 88.136C65.9187 88.136 65.687 88.1815 65.4596 88.2714C65.23 88.3604 65.0263 88.4977 64.8465 88.6775C64.6668 88.8583 64.5303 89.0633 64.4372 89.2944C64.344 89.5265 64.2985 89.7605 64.2985 89.9954C64.2985 90.2333 64.344 90.4673 64.4372 90.6955C64.5303 90.9275 64.6668 91.1325 64.8465 91.3133C65.0068 91.4758 65.1888 91.6024 65.3901 91.6933C65.5916 91.7832 65.7996 91.8384 66.0119 91.8529C66.2264 91.8683 66.4365 91.849 66.6487 91.792C66.8588 91.7349 67.0537 91.6421 67.2335 91.5106V91.1625H65.8689V89.5825H68.8105V89.5874Z" fill="#D0C8C2"/>
<path id="Vector_18" fill-rule="evenodd" clip-rule="evenodd" d="M77.5812 93.4338H73.5221V86.5551H75.0922V91.85H77.5812V93.4338Z" fill="#D0C8C2"/>
<path id="Vector_19" fill-rule="evenodd" clip-rule="evenodd" d="M83.7587 93.4338H82.1886V86.5551H83.7587V93.4338Z" fill="#D0C8C2"/>
<path id="Vector_20" fill-rule="evenodd" clip-rule="evenodd" d="M92.5837 86.5643H94.1518V93.4338H92.4541L90.2243 89.4279V93.4338H88.6561V86.5837H90.3635L92.5837 90.5785V86.5643Z" fill="#D0C8C2"/>
<path id="Vector_21" fill-rule="evenodd" clip-rule="evenodd" d="M103.666 88.2956H100.598V89.4317H103.088V91.1606H100.598V92.347H103.666V94.0787H98.8821V86.5762L103.666 86.5643V88.2956Z" fill="#D0C8C2"/>
<path id="Vector_22" fill-rule="evenodd" clip-rule="evenodd" d="M112.991 86.5643H114.559V93.4338H112.991V90.8405H111.021V93.4338H109.453V86.5643H111.021V89.2596H112.991V86.5643Z" fill="#D0C8C2"/>
<path id="Vector_23" fill-rule="evenodd" clip-rule="evenodd" d="M123.587 88.1467H120.784V89.1852H123.058V90.7661H120.784V91.85H123.587V93.4338H119.214V86.5752L123.587 86.5643V88.1467Z" fill="#D0C8C2"/>
<path id="Vector_24" fill-rule="evenodd" clip-rule="evenodd" d="M130.424 91.6537C130.345 91.6672 130.265 91.6769 130.182 91.6827C130.103 91.6895 130.018 91.6962 129.931 91.703V93.4338H128.364V86.5946H129.931C130.321 86.6016 130.688 86.6735 131.027 86.8114C131.367 86.9477 131.666 87.1314 131.924 87.3606C132.182 87.5927 132.381 87.8605 132.528 88.166C132.673 88.4696 132.747 88.7974 132.747 89.1465C132.747 89.5129 132.67 89.8533 132.516 90.1695C132.362 90.4847 132.145 90.7574 131.866 90.9865L133.369 93.4357H131.521L130.424 91.6537ZM129.934 90.1115C130.1 90.1047 130.26 90.0767 130.412 90.0215C130.564 89.9693 130.695 89.8997 130.811 89.8117C130.926 89.7247 131.014 89.6251 131.079 89.5091C131.144 89.393 131.176 89.2702 131.176 89.1397C131.176 89.0092 131.144 88.8873 131.079 88.7752C131.014 88.664 130.926 88.5634 130.811 88.4764C130.695 88.3884 130.564 88.3188 130.412 88.2666C130.26 88.2144 130.1 88.1834 129.934 88.1767V90.1115Z" fill="#D0C8C2"/>
<path id="Vector_25" fill-rule="evenodd" clip-rule="evenodd" d="M142.295 88.1467H139.49V89.1852H141.767V90.7661H139.49V91.85H142.295V93.4338H137.922V86.5752L142.295 86.5643V88.1467Z" fill="#D0C8C2"/>
<path id="Vector_26" fill-rule="evenodd" clip-rule="evenodd" d="M23.0169 48.3456H20.5692V49.2536H22.5555V50.6332H20.5692V51.5805H23.0169V52.9601H19.2002V46.9748L23.0169 46.9661V48.3456Z" fill="#D0C8C2"/>
<path id="Vector_27" fill-rule="evenodd" clip-rule="evenodd" d="M25.9586 53.0757C25.7701 53.0757 25.5817 53.0495 25.3953 52.9971C25.2091 52.9447 25.0314 52.864 24.8647 52.757C24.5722 52.5671 24.3448 52.3205 24.1846 52.017C24.0242 51.7136 23.9419 51.384 23.9419 51.0238H25.3109C25.3109 51.1876 25.3455 51.3142 25.417 51.4037C25.4863 51.4932 25.5492 51.5543 25.6034 51.587C25.7008 51.6525 25.8069 51.6874 25.9196 51.694C26.0322 51.7005 26.1448 51.6787 26.251 51.6285C26.3268 51.5957 26.3874 51.5543 26.4329 51.5062C26.4785 51.4583 26.513 51.4102 26.5391 51.3644C26.5629 51.3185 26.5781 51.2727 26.5845 51.229C26.591 51.1854 26.5932 51.1505 26.5932 51.1221C26.5932 51.0937 26.591 51.0588 26.5845 51.0151C26.5802 50.9715 26.5651 50.9257 26.5391 50.8755C26.5153 50.8274 26.4806 50.7794 26.4329 50.7335C26.3874 50.6877 26.3268 50.644 26.251 50.6069C26.1925 50.5807 26.1275 50.5546 26.0604 50.5327C25.9931 50.5109 25.9217 50.4869 25.8458 50.4586C25.7116 50.4149 25.5708 50.3668 25.4235 50.3123C25.2784 50.2576 25.1311 50.1835 24.986 50.0918C24.7975 49.9717 24.6372 49.8233 24.5073 49.6421C24.3773 49.4632 24.2841 49.2689 24.2279 49.0616C24.1715 48.8542 24.1521 48.6402 24.1715 48.4198C24.191 48.1993 24.2517 47.9875 24.3535 47.7868C24.4509 47.6012 24.5722 47.4419 24.7174 47.3044C24.8624 47.169 25.0249 47.0599 25.2025 46.9813C25.3802 46.9027 25.5729 46.8547 25.7787 46.8394C25.9846 46.8241 26.1925 46.8416 26.4026 46.8962C26.6084 46.9442 26.7925 47.0227 26.9593 47.1298C27.1261 47.2367 27.269 47.3633 27.3904 47.5139C27.5116 47.6646 27.6048 47.8304 27.6676 48.0159C27.7326 48.2015 27.7651 48.3936 27.7651 48.5966H26.4026C26.4026 48.4721 26.3636 48.3848 26.2857 48.3346C26.2077 48.2866 26.1383 48.2539 26.0798 48.2364C26.069 48.2364 26.0431 48.232 26.0019 48.2232C25.9607 48.2146 25.9152 48.2146 25.8632 48.2232C25.8113 48.232 25.7592 48.2495 25.7051 48.2801C25.6509 48.3106 25.6076 48.3586 25.5751 48.4219C25.5318 48.5093 25.5232 48.6009 25.5513 48.6948C25.5773 48.7908 25.6315 48.8651 25.7138 48.9196C25.7896 48.9632 25.8741 49.0026 25.965 49.0375C26.056 49.0725 26.1535 49.1073 26.2574 49.1402C26.3506 49.1663 26.4416 49.1968 26.5369 49.2296C26.6322 49.2623 26.7254 49.2994 26.8228 49.343C27.1759 49.5068 27.4553 49.7469 27.6568 50.0613C27.8582 50.3778 27.96 50.7292 27.96 51.1155C27.96 51.4976 27.8582 51.8445 27.6568 52.1611C27.4553 52.4776 27.178 52.7155 26.8228 52.8792C26.6842 52.9447 26.5412 52.9927 26.3939 53.0212C26.2488 53.0604 26.1037 53.0757 25.9586 53.0757Z" fill="#D0C8C2"/>
<path id="Vector_28" fill-rule="evenodd" clip-rule="evenodd" d="M32.4242 46.9419V48.3215H31.2827V52.9599H29.9115V48.3215H28.7787V46.9419H32.4242Z" fill="#D0C8C2"/>
<path id="Vector_29" fill-rule="evenodd" clip-rule="evenodd" d="M34.6619 46.9419C35.0561 46.9638 35.4287 47.0598 35.7753 47.2278C36.1241 47.396 36.4272 47.6164 36.6828 47.8893C36.9407 48.1621 37.1421 48.4765 37.2916 48.8366C37.441 49.1968 37.5147 49.5788 37.5147 49.9892C37.5147 50.3929 37.441 50.7684 37.2959 51.1199C37.1508 51.4712 36.9493 51.779 36.6915 52.0475C36.436 52.3138 36.1327 52.5277 35.7883 52.6893C35.4417 52.8507 35.067 52.9403 34.6619 52.9621H33.293V46.9332H34.6619V46.9419ZM34.6619 51.5717C34.872 51.5499 35.0692 51.4931 35.249 51.4036C35.4308 51.3141 35.5869 51.1984 35.7189 51.0609C35.8511 50.9212 35.9551 50.7597 36.0309 50.5741C36.1067 50.3886 36.1435 50.1922 36.1435 49.987C36.1435 49.7753 36.1067 49.5722 36.0309 49.378C35.9551 49.1837 35.8489 49.0134 35.7146 48.8628C35.5804 48.7123 35.4222 48.5899 35.2446 48.4961C35.067 48.4001 34.872 48.3433 34.6619 48.3215V51.5717Z" fill="#D0C8C2"/>
<path id="Vector_30" fill-rule="evenodd" clip-rule="evenodd" d="M107.278 46.9507H108.647V52.9599H107.278V49.1378L106.874 49.6442L105.81 48.7711L107.278 46.9507Z" fill="#D0C8C2"/>
<path id="Vector_31" d="M111.743 51.2858C111.472 51.2596 111.218 51.1831 110.981 51.061C110.742 50.9386 110.536 50.7815 110.36 50.5916C110.185 50.4017 110.046 50.1812 109.946 49.9302C109.848 49.6792 109.798 49.4129 109.798 49.1292C109.798 48.8301 109.853 48.5485 109.969 48.2844C110.081 48.0203 110.235 47.791 110.429 47.5946C110.625 47.3982 110.852 47.2432 111.114 47.1297C111.376 47.0162 111.656 46.9573 111.952 46.9573C112.249 46.9573 112.529 47.0139 112.787 47.1297C113.046 47.2432 113.275 47.3982 113.467 47.5946C113.662 47.791 113.815 48.0203 113.928 48.2844C114.04 48.5485 114.099 48.8301 114.099 49.1292C114.099 49.45 114.032 49.76 113.896 50.0612L112.438 52.96H110.907L111.743 51.2858ZM111.952 48.3389C111.844 48.3389 111.743 48.3585 111.65 48.4001C111.554 48.4416 111.472 48.4983 111.398 48.5725C111.324 48.6468 111.268 48.7297 111.227 48.8256C111.186 48.9218 111.167 49.0222 111.167 49.1313C111.167 49.2404 111.186 49.343 111.227 49.4369C111.268 49.5329 111.324 49.6158 111.398 49.6857C111.472 49.7556 111.554 49.8124 111.65 49.8539C111.745 49.8952 111.844 49.9149 111.952 49.9149C112.17 49.9149 112.354 49.8385 112.503 49.6857C112.654 49.5329 112.73 49.3474 112.73 49.1313C112.73 49.0222 112.71 48.9195 112.67 48.8256C112.629 48.7297 112.575 48.6468 112.503 48.5725C112.434 48.4983 112.351 48.4416 112.256 48.4001C112.163 48.3585 112.061 48.3389 111.952 48.3389Z" fill="#D0C8C2"/>
<path id="Vector_32" d="M111.743 51.2858C111.472 51.2596 111.218 51.1831 110.981 51.061C110.742 50.9386 110.536 50.7815 110.36 50.5916C110.185 50.4017 110.046 50.1812 109.946 49.9302C109.848 49.6792 109.798 49.4129 109.798 49.1292C109.798 48.8301 109.853 48.5485 109.969 48.2844C110.081 48.0203 110.235 47.791 110.429 47.5946C110.625 47.3982 110.852 47.2432 111.114 47.1297C111.376 47.0162 111.656 46.9573 111.952 46.9573C112.249 46.9573 112.529 47.0139 112.787 47.1297C113.046 47.2432 113.275 47.3982 113.467 47.5946C113.662 47.791 113.815 48.0203 113.928 48.2844C114.04 48.5485 114.099 48.8301 114.099 49.1292C114.099 49.45 114.032 49.76 113.896 50.0612L112.438 52.96H110.907L111.743 51.2858ZM111.952 48.3389C111.844 48.3389 111.743 48.3585 111.65 48.4001C111.554 48.4416 111.472 48.4983 111.398 48.5725C111.324 48.6468 111.268 48.7297 111.227 48.8256C111.186 48.9218 111.167 49.0222 111.167 49.1313C111.167 49.2404 111.186 49.343 111.227 49.4369C111.268 49.5329 111.324 49.6158 111.398 49.6857C111.472 49.7556 111.554 49.8124 111.65 49.8539C111.745 49.8952 111.844 49.9149 111.952 49.9149C112.17 49.9149 112.354 49.8385 112.503 49.6857C112.654 49.5329 112.73 49.3474 112.73 49.1313C112.73 49.0222 112.71 48.9195 112.67 48.8256C112.629 48.7297 112.575 48.6468 112.503 48.5725C112.434 48.4983 112.351 48.4416 112.256 48.4001C112.163 48.3585 112.061 48.3389 111.952 48.3389Z" fill="#D0C8C2"/>
<path id="Vector_33" fill-rule="evenodd" clip-rule="evenodd" d="M117.082 51.2858C116.812 51.2596 116.557 51.1831 116.32 51.061C116.082 50.9386 115.875 50.7815 115.7 50.5916C115.525 50.4017 115.386 50.1812 115.287 49.9302C115.187 49.6792 115.137 49.4129 115.137 49.1292C115.137 48.8301 115.193 48.5485 115.309 48.2844C115.421 48.0203 115.575 47.791 115.769 47.5946C115.965 47.3982 116.192 47.2432 116.453 47.1297C116.717 47.0162 116.995 46.9573 117.293 46.9573C117.589 46.9573 117.869 47.0139 118.126 47.1297C118.386 47.2432 118.611 47.3982 118.806 47.5946C119.002 47.791 119.156 48.0203 119.268 48.2844C119.38 48.5485 119.439 48.8301 119.439 49.1292C119.439 49.45 119.372 49.76 119.235 50.0612L117.778 52.96H116.246L117.082 51.2858ZM117.295 48.3389C117.186 48.3389 117.084 48.3585 116.991 48.4001C116.896 48.4416 116.813 48.4983 116.74 48.5725C116.666 48.6468 116.61 48.7297 116.569 48.8256C116.527 48.9218 116.508 49.0222 116.508 49.1313C116.508 49.2404 116.527 49.343 116.569 49.4369C116.61 49.5329 116.666 49.6158 116.74 49.6857C116.813 49.7556 116.896 49.8124 116.991 49.8539C117.086 49.8952 117.186 49.9149 117.295 49.9149C117.511 49.9149 117.695 49.8385 117.845 49.6857C117.997 49.5329 118.072 49.3474 118.072 49.1313C118.072 49.0222 118.052 48.9195 118.012 48.8256C117.97 48.7297 117.916 48.6468 117.845 48.5725C117.776 48.4983 117.693 48.4416 117.598 48.4001C117.502 48.3585 117.403 48.3389 117.295 48.3389Z" fill="#D0C8C2"/>
<path id="Vector_34" fill-rule="evenodd" clip-rule="evenodd" d="M122.423 51.2858C122.154 51.2596 121.899 51.1831 121.662 51.061C121.423 50.9386 121.217 50.7815 121.042 50.5916C120.866 50.4017 120.728 50.1812 120.628 49.9302C120.529 49.6792 120.479 49.4129 120.479 49.1292C120.479 48.8301 120.535 48.5485 120.65 48.2844C120.762 48.0203 120.916 47.791 121.111 47.5946C121.307 47.3982 121.533 47.2432 121.795 47.1297C122.058 47.0162 122.337 46.9573 122.634 46.9573C122.93 46.9573 123.21 47.0139 123.468 47.1297C123.728 47.2432 123.955 47.3982 124.148 47.5946C124.343 47.791 124.497 48.0203 124.609 48.2844C124.721 48.5485 124.78 48.8301 124.78 49.1292C124.78 49.45 124.713 49.76 124.577 50.0612L123.12 52.96H121.588L122.423 51.2858ZM122.634 48.3389C122.525 48.3389 122.423 48.3585 122.331 48.4001C122.235 48.4416 122.154 48.4983 122.08 48.5725C122.006 48.6468 121.949 48.7297 121.909 48.8256C121.867 48.9218 121.847 49.0222 121.847 49.1313C121.847 49.2404 121.867 49.343 121.909 49.4369C121.949 49.5329 122.006 49.6158 122.08 49.6857C122.154 49.7556 122.235 49.8124 122.331 49.8539C122.426 49.8952 122.525 49.9149 122.634 49.9149C122.85 49.9149 123.035 49.8385 123.184 49.6857C123.336 49.5329 123.412 49.3474 123.412 49.1313C123.412 49.0222 123.391 48.9195 123.351 48.8256C123.31 48.7297 123.255 48.6468 123.184 48.5725C123.115 48.4983 123.032 48.4416 122.937 48.4001C122.844 48.3585 122.742 48.3389 122.634 48.3389Z" fill="#D0C8C2"/>
<path id="Vector_35" fill-rule="evenodd" clip-rule="evenodd" d="M52.7661 58.0028V37.8681L62.5052 32.0344V14.1635L85.0924 0.636108V20.9236L94.8316 26.7572V58.0028H91.7222V28.5315L85.0924 24.5604V58.0028H81.9831V22.6979L75.3533 18.7268V24.336V58.0004H72.2445V29.8376L65.6142 33.8087V58.0028H62.5052V35.6713L55.875 39.6423V58.0028H52.7661ZM65.6142 30.172L72.2445 26.2008V13.2275L81.9831 19.0611V6.13543L65.6142 15.9401V30.172Z" fill="#D0C8C2"/>
</g>
</svg>
