<svg id="eG0JfdHZDNS1" xmlns="http://www.w3.org/2000/svg" xmlns:xlink="http://www.w3.org/1999/xlink" viewBox="0 0 205 86" shape-rendering="geometricPrecision" text-rendering="geometricPrecision">
<style><![CDATA[
#eG0JfdHZDNS3_to {animation: eG0JfdHZDNS3_to__to 4400ms linear 1 normal forwards}@keyframes eG0JfdHZDNS3_to__to { 0% {transform: translate(-130px,17.4168px)} 22.727273% {transform: translate(103px,17.4168px)} 100% {transform: translate(103px,17.4168px)}} #eG0JfdHZDNS11 {animation: eG0JfdHZDNS11_c_o 4400ms linear 1 normal forwards}@keyframes eG0JfdHZDNS11_c_o { 0% {opacity: 0} 25% {opacity: 0} 27.272727% {opacity: 1} 100% {opacity: 1}} #eG0JfdHZDNS12 {animation: eG0JfdHZDNS12_c_o 4400ms linear 1 normal forwards}@keyframes eG0JfdHZDNS12_c_o { 0% {opacity: 0} 29.545455% {opacity: 0} 31.818182% {opacity: 1} 100% {opacity: 1}} #eG0JfdHZDNS13 {animation: eG0JfdHZDNS13_c_o 4400ms linear 1 normal forwards}@keyframes eG0JfdHZDNS13_c_o { 0% {opacity: 0} 34.090909% {opacity: 0} 36.363636% {opacity: 1} 100% {opacity: 1}} #eG0JfdHZDNS14 {animation: eG0JfdHZDNS14_c_o 4400ms linear 1 normal forwards}@keyframes eG0JfdHZDNS14_c_o { 0% {opacity: 0} 38.636364% {opacity: 0} 40.909091% {opacity: 1} 100% {opacity: 1}} #eG0JfdHZDNS15 {animation: eG0JfdHZDNS15_c_o 4400ms linear 1 normal forwards}@keyframes eG0JfdHZDNS15_c_o { 0% {opacity: 0} 43.181818% {opacity: 0} 45.454545% {opacity: 1} 100% {opacity: 1}} #eG0JfdHZDNS16 {animation: eG0JfdHZDNS16_c_o 4400ms linear 1 normal forwards}@keyframes eG0JfdHZDNS16_c_o { 0% {opacity: 0} 47.727273% {opacity: 0} 50% {opacity: 1} 100% {opacity: 1}} #eG0JfdHZDNS17 {animation: eG0JfdHZDNS17_c_o 4400ms linear 1 normal forwards}@keyframes eG0JfdHZDNS17_c_o { 0% {opacity: 0} 52.272727% {opacity: 0} 54.545455% {opacity: 1} 100% {opacity: 1}} #eG0JfdHZDNS18 {animation: eG0JfdHZDNS18_c_o 4400ms linear 1 normal forwards}@keyframes eG0JfdHZDNS18_c_o { 0% {opacity: 0} 56.818182% {opacity: 0} 59.090909% {opacity: 1} 100% {opacity: 1}} #eG0JfdHZDNS19 {animation: eG0JfdHZDNS19_c_o 4400ms linear 1 normal forwards}@keyframes eG0JfdHZDNS19_c_o { 0% {opacity: 0} 61.363636% {opacity: 0} 63.636364% {opacity: 1} 100% {opacity: 1}} #eG0JfdHZDNS20 {animation: eG0JfdHZDNS20_c_o 4400ms linear 1 normal forwards}@keyframes eG0JfdHZDNS20_c_o { 0% {opacity: 0} 65.909091% {opacity: 0} 68.181818% {opacity: 1} 100% {opacity: 1}} #eG0JfdHZDNS21 {animation: eG0JfdHZDNS21_c_o 4400ms linear 1 normal forwards}@keyframes eG0JfdHZDNS21_c_o { 0% {opacity: 0} 70.454545% {opacity: 0} 72.727273% {opacity: 1} 100% {opacity: 1}} #eG0JfdHZDNS22 {animation: eG0JfdHZDNS22_c_o 4400ms linear 1 normal forwards}@keyframes eG0JfdHZDNS22_c_o { 0% {opacity: 0} 75% {opacity: 0} 77.272727% {opacity: 1} 100% {opacity: 1}} #eG0JfdHZDNS23 {animation: eG0JfdHZDNS23_c_o 4400ms linear 1 normal forwards}@keyframes eG0JfdHZDNS23_c_o { 0% {opacity: 0} 79.545455% {opacity: 0} 81.818182% {opacity: 1} 100% {opacity: 1}} #eG0JfdHZDNS24 {animation: eG0JfdHZDNS24_c_o 4400ms linear 1 normal forwards}@keyframes eG0JfdHZDNS24_c_o { 0% {opacity: 0} 84.090909% {opacity: 0} 86.363636% {opacity: 1} 100% {opacity: 1}} #eG0JfdHZDNS25 {animation: eG0JfdHZDNS25_c_o 4400ms linear 1 normal forwards}@keyframes eG0JfdHZDNS25_c_o { 0% {opacity: 0} 88.636364% {opacity: 0} 90.909091% {opacity: 1} 100% {opacity: 1}} #eG0JfdHZDNS26 {animation: eG0JfdHZDNS26_c_o 4400ms linear 1 normal forwards}@keyframes eG0JfdHZDNS26_c_o { 0% {opacity: 0} 93.181818% {opacity: 0} 95.454545% {opacity: 1} 100% {opacity: 1}} #eG0JfdHZDNS27 {animation: eG0JfdHZDNS27_c_o 4400ms linear 1 normal forwards}@keyframes eG0JfdHZDNS27_c_o { 0% {opacity: 0} 97.727273% {opacity: 0} 100% {opacity: 1}}
]]></style>
<g><g id="eG0JfdHZDNS3_to" transform="translate(-130,17.4168)"><g transform="translate(-103.0116,-17.4168)"><path d="M69.2264,26.9167v-3.3955h-7.5796v3.3955c0,1.7578-1.4345,3.1964-3.1873,3.1964v.5767h13.9576v-.5767c-1.7528,0-3.1873-1.4386-3.1873-3.1964h-.0034Z" fill="#fff"/><path d="M88.3329,26.9716v-3.3954h-7.5797v3.3954c0,1.7579-1.4344,3.1964-3.1873,3.1964v.5768h13.9577v-.5768c-1.7529,0-3.1873-1.4385-3.1873-3.1964h-.0034Z" fill="#fff"/><path d="M80.7532,19.4733h7.5797v-15.64524c0-1.75782,1.4344-3.196344,3.1873-3.196344v-.573351h-13.9577v.576784c1.7529,0,3.1873,1.438531,3.1873,3.196351v8.8646h-11.527v-8.92297c0-1.75782,1.4345-3.196346,3.1873-3.196346v-.576784h-13.9576v.576784c1.7528,0,3.1873,1.438526,3.1873,3.196346v8.91957h-8.7951c-1.5508,0-2.8209-1.2737-2.8209-2.829h-.5067v12.3906h.5067c0-1.5553,1.2701-2.829,2.8209-2.829h27.9017v.0515l.0068-.0035Z" fill="#fff"/><path d="M91.5205,12.6927v6.7222h52.4075v3.9242c0,.6729.544,1.2154,1.212,1.2154h3.718v3.9242c0,.6729.544,1.2154,1.211,1.2154h3.811v3.9242c0,.6729.544,1.2153,1.212,1.2153h7.531c.671,0,1.212-.5459,1.212-1.2153v-14.2102h8.196v-6.7223h-80.5173l.0068.0069Z" fill="#fff"/><path d="M39.8311,10.915l-5.8389,5.8555l5.8389,5.8555l5.839-5.8555-5.839-5.8555Z" fill="#fff"/></g></g><g><g><path id="eG0JfdHZDNS11" d="M4.83058,69.2279v.1339C3.22495,69.324,1.6022,69.324,0,69.3618v-.1339c1.35914-.3022,1.60563-.5288,1.60563-1.2875v-9.3315c0-.7588-.24649-.9854-1.60563-1.2875v-.1339c1.60563.0378,3.22837.0378,4.83058,0v.1339c-1.35914.3021-1.60563.5287-1.60563,1.2875v9.3315c0,.7587.24649.9853,1.60563,1.2875Z" opacity="0" fill="#fff"/><path id="eG0JfdHZDNS12" d="M10.024,59.2166h-.13356l.0582,4.731v3.4057c0,1.1158.51006,1.5725,2.07806,1.8746v.1339c-1.5851-.0378-3.15304-.0378-4.73813,0v-.1339c1.43446-.3399,1.88636-.7965,1.88636-1.854l-.01712-8.1402c0-1.078-.52722-1.6273-1.86924-1.9123v-.1339c1.09553.0378,2.17051.0378,3.26603,0l7.4564,9.0844h.1335l-.0753-3.4642v-3.6358c0-1.1535-.5854-1.6102-2.0575-1.8539v-.1339c1.5474.0377,3.0948.0377,4.6423,0v.1339c-1.2838.2472-1.7939.7759-1.7939,1.8745v10.4474h-.2637l-8.569-10.4302-.0034.0069Z" opacity="0" fill="#fff"/><path id="eG0JfdHZDNS13" d="M25.0842,69.2279c1.7357-.3022,1.9822-.5288,1.9822-1.2875v-10.1281h-1.0578c-1.8111.0206-2.756.9099-3.2079,3.0865h-.1335c0-1.2291-.0582-2.4788-.1335-3.7113h10.7019c-.0753,1.2291-.1335,2.4788-.1335,3.7113h-.1335c-.4519-2.1766-1.3968-3.0659-3.2079-3.0865h-1.075v10.1281c0,.7587.2465.9853,1.9823,1.2875v.1339c-1.9823-.0378-3.605-.0378-5.5872,0v-.1339h.0034Z" opacity="0" fill="#fff"/><path id="eG0JfdHZDNS14" d="M43.9784,69.3618c-2.8895-.0378-5.7755-.0378-8.6649,0v-.1339c1.3591-.3022,1.6056-.5288,1.6056-1.2875v-9.3315c0-.7588-.2465-.9854-1.6056-1.2875v-.1339c2.8894.0378,5.7754.0378,8.6649,0-.0753,1.0403-.1335,2.1011-.1335,3.1414h-.1335c-.6402-2.005-1.414-2.5166-4.1322-2.5166h-1.0373v4.7894h1.3385c1.5475,0,1.9617-.3982,2.4924-1.7406h.1335c-.0753,1.363-.0753,2.7431,0,4.1061h-.1335c-.5273-1.3424-.9449-1.7406-2.4924-1.7406h-1.3385v5.5069h1.1126c2.53,0,3.3413-.5871,4.0569-2.8977h.1335c0,1.1742.0582,2.3484.1335,3.5225v.0035Z" opacity="0" fill="#fff"/><path id="eG0JfdHZDNS15" d="M57.1929,69.2279v.1339c-.5649.151-1.0373.2849-1.4721.2849-.5101,0-.9997-.2094-1.4927-1.0231l-2.6977-4.5799c-.113.0206-.2259.0206-.3595.0206-.4519,0-.9072-.0755-1.3214-.2472v4.1267c0,.7588.2465.9854,1.6227,1.2875v.1339c-1.6227-.0378-3.2284-.0378-4.8511,0v-.1339c1.3591-.3021,1.6056-.5287,1.6056-1.2875v-9.3315c0-.7587-.2465-.9853-1.6056-1.2875v-.1339c1.2462.0378,2.6053.0378,4.0569,0c3.1154-.0755,4.8305,1.3047,4.8305,3.2376c0,1.4763-1.0578,2.7431-2.5676,3.3131l1.924,3.162c.7943,1.3046,1.6981,2.2144,2.3212,2.3277l.0068-.0034Zm-3.4167-8.6518c0-1.7784-1.0955-2.7637-3.2283-2.7637-.2636,0-.5649.0377-.6984.0583v5.3181c.4348.1717.849.2472,1.2632.2472c1.3215,0,2.6601-1.0231,2.6601-2.8599h.0034Z" opacity="0" fill="#fff"/><path id="eG0JfdHZDNS16" d="M62.2533,59.8003l-.6641-.5837.0582,4.731v3.4057c0,1.1158.5101,1.5725,2.078,1.8746v.1339c-1.585-.0378-3.153-.0378-4.7381,0v-.1339c1.4345-.3399,1.8864-.7965,1.8864-1.854l-.0172-8.1402c0-1.078-.5272-1.6273-1.8692-1.9123v-.1339c1.0955.0378,2.1705.0378,3.266,0l7.4564,9.0844h.1336l-.0754-3.4642v-3.6358c0-1.1535-.5854-1.6102-2.0575-1.8539v-.1339c1.5474.0377,3.0949.0377,4.6423,0v.1339c-1.2838.2472-1.7939.7759-1.7939,1.8745v10.4474h-.2636L61.7261,59.2097l.5272.5906Z" opacity="0" fill="#fff"/><path id="eG0JfdHZDNS17" d="M72.8179,69.228c1.0202-.3399,1.4926-.7965,1.9069-1.8368L79.011,56.9988h.1335l4.947,10.9211c.3766.8721.7737,1.1742,1.6433,1.3046v.1339c-1.6433-.0377-3.266-.0377-4.9093,0v-.1339c.8695-.2094,1.5303-.3227,1.5303-.8514c0-.1339-.0377-.2644-.113-.436l-1.0202-2.3655h-4.9641l-.7566,1.8162c-.113.2849-.1712.5115-.1712.7209c0,.6421.5273.9648,1.5303,1.1158v.1339c-1.3386-.0377-2.6977-.0377-4.0397,0v-.1339l-.0034.0035Zm8.1342-4.2778L78.744,59.8003h-.1335l-2.1124,5.1499h4.454Z" opacity="0" fill="#fff"/><path id="eG0JfdHZDNS18" d="M87.9944,69.2279c1.7357-.3022,1.9822-.5288,1.9822-1.2875v-10.1281h-1.0579c-1.811.0206-2.7559.9099-3.2078,3.0865h-.1335c0-1.2291-.0582-2.4788-.1336-3.7113h10.702c-.0754,1.2291-.1336,2.4788-.1336,3.7113h-.1335c-.4519-2.1766-1.3968-3.0659-3.2078-3.0865h-1.075v10.1281c0,.7587.2465.9853,1.9822,1.2875v.1339c-1.9822-.0378-3.6049-.0378-5.5872,0v-.1339h.0035Z" opacity="0" fill="#fff"/><path id="eG0JfdHZDNS19" d="M103.058,69.2279v.1339c-1.606-.0378-3.2283-.0378-4.8305,0v-.1339c1.3592-.3022,1.6057-.5288,1.6057-1.2875v-9.3315c0-.7588-.2465-.9854-1.6057-1.2875v-.1339c1.6057.0378,3.2285.0378,4.8305,0v.1339c-1.359.3021-1.606.5287-1.606,1.2875v9.3315c0,.7587.247.9853,1.606,1.2875Z" opacity="0" fill="#fff"/><path id="eG0JfdHZDNS20" d="M117.724,63.0755c0,3.7869-2.869,6.5678-6.265,6.5678-3.588,0-6.135-2.5371-6.135-6.1695s2.736-6.5678,6.286-6.5678s6.114,2.5372,6.114,6.1695Zm-1.811.5494c0-3.5603-1.794-6.0563-4.604-6.0563-2.455,0-4.17,2.2145-4.17,5.3559c0,3.5602,1.886,6.0562,4.587,6.0562c2.493,0,4.191-2.2144,4.191-5.3558h-.004Z" opacity="0" fill="#fff"/><path id="eG0JfdHZDNS21" d="M122.726,59.2166h-.133l.058,4.731v3.4057c0,1.1158.51,1.5725,2.078,1.8746v.1339c-1.585-.0378-3.153-.0378-4.738,0v-.1339c1.434-.3399,1.886-.7965,1.886-1.854l-.017-8.1402c0-1.078-.527-1.6273-1.869-1.9123v-.1339c1.095.0378,2.17.0378,3.266,0l7.456,9.0844h.134l-.076-3.4642v-3.6358c0-1.1535-.585-1.6102-2.057-1.8539v-.1339c1.547.0377,3.095.0377,4.642,0v.1339c-1.284.2472-1.794.7759-1.794,1.8745v10.4474h-.263L122.73,59.2097l-.004.0069Z" opacity="0" fill="#fff"/><path id="eG0JfdHZDNS22" d="M133.825,69.228c1.02-.3399,1.493-.7965,1.907-1.8368l4.286-10.3924h.134l4.947,10.9211c.376.8721.774,1.1742,1.643,1.3046v.1339c-1.643-.0377-3.266-.0377-4.909,0v-.1339c.869-.2094,1.53-.3227,1.53-.8514c0-.1339-.038-.2644-.113-.436l-1.02-2.3655h-4.964l-.757,1.8162c-.113.2849-.171.5115-.171.7209c0,.6421.527.9648,1.53,1.1158v.1339c-1.338-.0377-2.697-.0377-4.039,0v-.1339l-.004.0035Zm8.134-4.2778l-2.208-5.1499h-.133l-2.113,5.1499h4.454Z" opacity="0" fill="#fff"/><path id="eG0JfdHZDNS23" d="M148.526,69.2279c1.359-.3022,1.606-.5288,1.606-1.2875v-9.3315c0-.7588-.247-.9854-1.606-1.2875v-.1339c1.718.0378,3.454.0378,5.173,0v.1339c-1.698.3021-1.945.5287-1.945,1.2875v10.128h1.038c2.115,0,3.019-.6626,3.755-3.0109h.134c0,1.2119.058,2.4238.133,3.6358-2.756-.0378-5.529-.0378-8.285,0v-.1339h-.003Z" opacity="0" fill="#fff"/><path id="eG0JfdHZDNS24" d="M164.551,69.2279c1.359-.3022,1.606-.5288,1.606-1.2875v-9.3315c0-.7588-.247-.9854-1.606-1.2875v-.1339c1.606.0378,3.229.0378,4.831,0v.1339c-1.359.3021-1.606.5287-1.606,1.2875v3.9928h7.06v-3.9928c0-.7588-.247-.9854-1.606-1.2875v-.1339c1.606.0378,3.228.0378,4.83,0v.1339c-1.359.3021-1.605.5287-1.605,1.2875v9.3315c0,.7587.246.9853,1.605,1.2875v.1339c-1.605-.0378-3.228-.0378-4.83,0v-.1339c1.359-.3022,1.606-.5288,1.606-1.2875v-4.7138h-7.06v4.7138c0,.7587.247.9853,1.606,1.2875v.1339c-1.606-.0378-3.229-.0378-4.831,0v-.1339Z" opacity="0" fill="#fff"/><path id="eG0JfdHZDNS25" d="M181.936,65.084v-6.4751c0-.7588-.247-.9854-1.606-1.2875v-.1339c1.606.0378,3.228.0378,4.831,0v.1339c-1.359.3021-1.606.5287-1.606,1.2875v5.7163c0,3.1414,1.15,4.6761,3.588,4.6761c2.437,0,3.776-1.4763,3.776-4.0684v-6.324c0-.7588-.246-.9854-1.886-1.2875v-.1339c1.492.0378,2.964.0378,4.454,0v.1339c-1.548.3021-1.794.5287-1.794,1.2875v6.1317c0,3.162-1.681,4.9199-4.756,4.9199-3.283,0-5.001-1.5141-5.001-4.58v.0035Z" opacity="0" fill="#fff"/><path id="eG0JfdHZDNS26" d="M205,65.9149c0,2.0256-1.962,3.5191-4.756,3.4435-1.568-.0377-3.115-.0377-4.68,0v-.1339c1.36-.3021,1.606-.5287,1.606-1.2874v-9.3316c0-.7587-.246-.9853-1.606-1.2874v-.1339c1.568.0377,2.756.0377,4.133,0c2.793-.0756,4.454,1.078,4.454,2.9148c0,1.6479-1.134,2.4994-2.417,2.7809v.1339c2.245.3605,3.266,1.5896,3.266,2.8977v.0034Zm-6.211-3.1243h1.113c1.643,0,2.492-.8342,2.492-2.5165s-1.057-2.4617-2.927-2.4617c-.263,0-.472.0206-.678.0584v4.9198Zm4.454,3.3886c0-1.6273-1.208-2.7637-2.927-2.7637h-1.53v5.2631c.527.0584,1.113.0584,1.681.0584c1.623,0,2.773-1.0609,2.773-2.5543l.003-.0035Z" opacity="0" fill="#fff"/></g><g id="eG0JfdHZDNS27" opacity="0"><path d="M72.1846,85.5291v-6.6021h1.6501c.6676,0,1.1948.1648,1.5851.4978.3903.3296.5854.7794.5854,1.3424c0,.3845-.0958.7176-.2876.9991s-.4656.4909-.825.6283c.2088.1373.4176.3261.6162.5665.202.2403.4827.6557.849,1.2531.2294.3742.4143.6557.5512.8446l.3492.4738h-1.1229l-.2876-.4361c0,0-.0274-.0412-.0547-.0789l-.1849-.261-.291-.4806-.315-.515c-.1951-.2712-.3731-.4875-.534-.6489-.161-.1613-.3082-.2746-.4383-.3467-.13-.0721-.3492-.1065-.6573-.1065h-.2465v2.8737h-.9414v-.0035Zm1.2256-5.7987h-.2842v2.084h.3595c.4759,0,.8045-.0412.9826-.1236.178-.0824.3149-.206.4142-.3708s.1472-.3537.1472-.5665c0-.2129-.0548-.3948-.1643-.5665-.1096-.1717-.2636-.2884-.4656-.3571-.1986-.0686-.5307-.103-.9928-.103l.0034.0035Z" fill="#fff"/><path d="M78.6753,78.927h3.7316v.8411h-2.7901v2.0154h2.6977v.8445h-2.6977v2.0531h2.8791v.8412h-3.824v-6.5953h.0034Z" fill="#fff"/><path d="M86.2961,78.8892h.6641l2.9511,6.6398h-.9654l-.8764-1.9569h-2.8107l-.8217,1.9569h-.9688l2.8278-6.6398Zm1.3865,3.8418l-1.0613-2.393-.986,2.393h2.0473Z" fill="#fff"/><path d="M91.3218,78.927h.9414v5.7438h2.9648v.8618h-3.9062v-6.6022-.0034Z" fill="#fff"/><path d="M101.264,78.927h3.731v.8411h-2.79v2.0154h2.698v.8445h-2.698v2.0531h2.879v.8412h-3.824v-6.5953h.004Z" fill="#fff"/><path d="M108.412,82.7618l-.715-.436c-.449-.2746-.77-.5459-.959-.8137-.191-.2678-.284-.5733-.284-.9201c0-.5184.178-.9407.541-1.2668.359-.3262.829-.4876,1.404-.4876s1.054.1545,1.513.4635v1.0712c-.476-.4566-.986-.6866-1.53-.6866-.309,0-.562.0721-.76.2128-.199.1442-.298.3262-.298.5493c0,.1992.072.3846.219.5562.147.1717.38.3536.702.5425l.719.4291c.804.4807,1.205,1.0952,1.205,1.8368c0,.5287-.178.9579-.531,1.2909s-.815.4978-1.38.4978c-.65,0-1.242-.1991-1.777-.6008v-1.2016c.511.6454,1.099.9716,1.767.9716.294,0,.541-.0824.736-.2472s.295-.3708.295-.618c0-.4017-.288-.7828-.867-1.1433Z" fill="#fff"/><path d="M111.333,78.9165h5.501v.8411h-2.294v5.7713h-.948v-5.7713h-2.259v-.8411Z" fill="#fff"/><path d="M119.549,78.8892h.664l2.951,6.6398h-.965l-.877-1.9569h-2.81l-.822,1.9569h-.969l2.828-6.6398Zm1.387,3.8418l-1.062-2.393-.986,2.393h2.048Z" fill="#fff"/><path d="M123.047,78.9165h5.502v.8411h-2.294v5.7713h-.948v-5.7713h-2.26v-.8411Z" fill="#fff"/><path d="M130.127,78.927h3.732v.8411h-2.79v2.0154h2.698v.8445h-2.698v2.0531h2.879v.8412h-3.824v-6.5953h.003Z" fill="#fff"/></g></g></g></svg>
