<svg width="205" height="86" viewBox="0 0 205 86" fill="none" xmlns="http://www.w3.org/2000/svg">
<g id="Group 3">
<g id="Group">
<path id="Vector" d="M69.2264 26.9167V23.5212H61.6468V26.9167C61.6468 28.6745 60.2123 30.1131 58.4595 30.1131V30.6898H72.4171V30.1131C70.6643 30.1131 69.2298 28.6745 69.2298 26.9167H69.2264Z" fill="white"/>
<path id="Vector_2" d="M88.3329 26.9716V23.5762H80.7532V26.9716C80.7532 28.7295 79.3188 30.168 77.5659 30.168V30.7448H91.5236V30.168C89.7707 30.168 88.3363 28.7295 88.3363 26.9716H88.3329Z" fill="white"/>
<path id="Vector_3" d="M80.7532 19.4733H88.3329V3.82806C88.3329 2.07024 89.7673 0.631716 91.5202 0.631716V0.0583651H77.5625V0.635149C79.3154 0.635149 80.7498 2.07368 80.7498 3.8315V12.6961H69.2228V3.77313C69.2228 2.01531 70.6573 0.576784 72.4101 0.576784V0H58.4525V0.576784C60.2053 0.576784 61.6398 2.01531 61.6398 3.77313V12.6927H52.8447C51.2939 12.6927 50.0238 11.419 50.0238 9.8637H49.5171V22.2543H50.0238C50.0238 20.699 51.2939 19.4253 52.8447 19.4253H80.7464V19.4768L80.7532 19.4733Z" fill="white"/>
<path id="Vector_4" d="M91.5205 12.6927V19.4149H143.928V23.3391C143.928 24.012 144.472 24.5545 145.14 24.5545H148.858V28.4787C148.858 29.1516 149.402 29.6941 150.069 29.6941H153.88V33.6183C153.88 34.2912 154.424 34.8336 155.092 34.8336H162.623C163.294 34.8336 163.835 34.2877 163.835 33.6183V19.4081H172.031V12.6858H91.5137L91.5205 12.6927Z" fill="white"/>
<path id="Vector_5" d="M39.8311 10.915L33.9922 16.7705L39.8311 22.626L45.6701 16.7705L39.8311 10.915Z" fill="white"/>
</g>
<g id="Group_2">
<g id="Group_3">
<path id="Vector_6" d="M4.83058 69.2279V69.3618C3.22495 69.324 1.6022 69.324 0 69.3618V69.2279C1.35914 68.9257 1.60563 68.6991 1.60563 67.9404V58.6089C1.60563 57.8501 1.35914 57.6235 0 57.3214V57.1875C1.60563 57.2253 3.22837 57.2253 4.83058 57.1875V57.3214C3.47144 57.6235 3.22495 57.8501 3.22495 58.6089V67.9404C3.22495 68.6991 3.47144 68.9257 4.83058 69.2279Z" fill="white"/>
<path id="Vector_7" d="M10.024 59.2166H9.89044L9.94864 63.9476V67.3533C9.94864 68.4691 10.4587 68.9258 12.0267 69.2279V69.3618C10.4416 69.324 8.87366 69.324 7.28857 69.3618V69.2279C8.72303 68.888 9.17493 68.4314 9.17493 67.3739L9.15781 59.2337C9.15781 58.1557 8.63059 57.6064 7.28857 57.3214V57.1875C8.3841 57.2253 9.45908 57.2253 10.5546 57.1875L18.011 66.2719H18.1445L18.0692 62.8077V59.1719C18.0692 58.0184 17.4838 57.5617 16.0117 57.318V57.1841C17.5591 57.2218 19.1065 57.2218 20.654 57.1841V57.318C19.3702 57.5652 18.8601 58.0939 18.8601 59.1925V69.6399H18.5964L10.0274 59.2097L10.024 59.2166Z" fill="white"/>
<path id="Vector_8" d="M25.0842 69.2279C26.8199 68.9257 27.0664 68.6991 27.0664 67.9404V57.8123H26.0086C24.1975 57.8329 23.2526 58.7222 22.8007 60.8988H22.6672C22.6672 59.6697 22.609 58.42 22.5337 57.1875H33.2356C33.1603 58.4166 33.1021 59.6663 33.1021 60.8988H32.9686C32.5167 58.7222 31.5718 57.8329 29.7607 57.8123H28.6857V67.9404C28.6857 68.6991 28.9322 68.9257 30.668 69.2279V69.3618C28.6857 69.324 27.063 69.324 25.0808 69.3618V69.2279H25.0842Z" fill="white"/>
<path id="Vector_9" d="M43.9784 69.3618C41.0889 69.324 38.2029 69.324 35.3135 69.3618V69.2279C36.6726 68.9257 36.9191 68.6991 36.9191 67.9404V58.6089C36.9191 57.8501 36.6726 57.6235 35.3135 57.3214V57.1875C38.2029 57.2253 41.0889 57.2253 43.9784 57.1875C43.9031 58.2278 43.8449 59.2886 43.8449 60.3289H43.7114C43.0712 58.3239 42.2974 57.8123 39.5792 57.8123H38.5419V62.6017H39.8804C41.4279 62.6017 41.8421 62.2035 42.3728 60.8611H42.5063C42.431 62.2241 42.431 63.6042 42.5063 64.9672H42.3728C41.8455 63.6248 41.4279 63.2266 39.8804 63.2266H38.5419V68.7335H39.6545C42.1845 68.7335 42.9958 68.1464 43.7114 65.8358H43.8449C43.8449 67.01 43.9031 68.1842 43.9784 69.3583V69.3618Z" fill="white"/>
<path id="Vector_10" d="M57.1929 69.2279V69.3618C56.628 69.5128 56.1556 69.6467 55.7208 69.6467C55.2107 69.6467 54.7211 69.4373 54.2281 68.6236L51.5304 64.0437C51.4174 64.0643 51.3045 64.0643 51.1709 64.0643C50.719 64.0643 50.2637 63.9888 49.8495 63.8171V67.9438C49.8495 68.7026 50.096 68.9292 51.4722 69.2313V69.3652C49.8495 69.3274 48.2438 69.3274 46.6211 69.3652V69.2313C47.9802 68.9292 48.2267 68.7026 48.2267 67.9438V58.6123C48.2267 57.8536 47.9802 57.627 46.6211 57.3248V57.1909C47.8673 57.2287 49.2264 57.2287 50.678 57.1909C53.7934 57.1154 55.5085 58.4956 55.5085 60.4285C55.5085 61.9048 54.4507 63.1716 52.9409 63.7416L54.8649 66.9036C55.6592 68.2082 56.563 69.118 57.1861 69.2313L57.1929 69.2279ZM53.7762 60.5761C53.7762 58.7977 52.6807 57.8124 50.5479 57.8124C50.2843 57.8124 49.983 57.8501 49.8495 57.8707V63.1888C50.2843 63.3605 50.6985 63.436 51.1127 63.436C52.4342 63.436 53.7728 62.4129 53.7728 60.5761H53.7762Z" fill="white"/>
<path id="Vector_11" d="M61.7227 59.2166H61.5892L61.6474 63.9476V67.3533C61.6474 68.4691 62.1575 68.9258 63.7254 69.2279V69.3618C62.1404 69.324 60.5724 69.324 58.9873 69.3618V69.2279C60.4218 68.888 60.8737 68.4314 60.8737 67.3739L60.8565 59.2337C60.8565 58.1557 60.3293 57.6064 58.9873 57.3214V57.1875C60.0828 57.2253 61.1578 57.2253 62.2533 57.1875L69.7097 66.2719H69.8433L69.7679 62.8077V59.1719C69.7679 58.0184 69.1825 57.5617 67.7104 57.318V57.1841C69.2578 57.2218 70.8053 57.2218 72.3527 57.1841V57.318C71.0689 57.5652 70.5588 58.0939 70.5588 59.1925V69.6399H70.2952L61.7261 59.2097L61.7227 59.2166Z" fill="white"/>
<path id="Vector_12" d="M72.8179 69.228C73.8381 68.8881 74.3105 68.4315 74.7248 67.3912L79.011 56.9988H79.1445L84.0915 67.9199C84.4681 68.792 84.8652 69.0941 85.7348 69.2245V69.3584C84.0915 69.3207 82.4688 69.3207 80.8255 69.3584V69.2245C81.695 69.0151 82.3558 68.9018 82.3558 68.3731C82.3558 68.2392 82.3181 68.1087 82.2428 67.9371L81.2226 65.5716H76.2585L75.5019 67.3878C75.3889 67.6727 75.3307 67.8993 75.3307 68.1087C75.3307 68.7508 75.858 69.0735 76.861 69.2245V69.3584C75.5224 69.3207 74.1633 69.3207 72.8213 69.3584V69.2245L72.8179 69.228ZM80.9521 64.9502L78.744 59.8003H78.6105L76.4981 64.9502H80.9521Z" fill="white"/>
<path id="Vector_13" d="M87.9944 69.2279C89.7301 68.9257 89.9766 68.6991 89.9766 67.9404V57.8123H88.9187C87.1077 57.8329 86.1628 58.7222 85.7109 60.8988H85.5774C85.5774 59.6697 85.5192 58.42 85.4438 57.1875H96.1458C96.0704 58.4166 96.0122 59.6663 96.0122 60.8988H95.8787C95.4268 58.7222 94.4819 57.8329 92.6709 57.8123H91.5959V67.9404C91.5959 68.6991 91.8424 68.9257 93.5781 69.2279V69.3618C91.5959 69.324 89.9732 69.324 87.9909 69.3618V69.2279H87.9944Z" fill="white"/>
<path id="Vector_14" d="M103.058 69.2279V69.3618C101.452 69.324 99.8297 69.324 98.2275 69.3618V69.2279C99.5867 68.9257 99.8332 68.6991 99.8332 67.9404V58.6089C99.8332 57.8501 99.5867 57.6235 98.2275 57.3214V57.1875C99.8332 57.2253 101.456 57.2253 103.058 57.1875V57.3214C101.699 57.6235 101.452 57.8501 101.452 58.6089V67.9404C101.452 68.6991 101.699 68.9257 103.058 69.2279Z" fill="white"/>
<path id="Vector_15" d="M117.724 63.0755C117.724 66.8624 114.855 69.6433 111.459 69.6433C107.871 69.6433 105.324 67.1062 105.324 63.4738C105.324 59.8414 108.06 56.906 111.61 56.906C115.16 56.906 117.724 59.4432 117.724 63.0755ZM115.913 63.6249C115.913 60.0646 114.119 57.5686 111.309 57.5686C108.854 57.5686 107.139 59.7831 107.139 62.9245C107.139 66.4847 109.025 68.9807 111.726 68.9807C114.219 68.9807 115.917 66.7663 115.917 63.6249H115.913Z" fill="white"/>
<path id="Vector_16" d="M122.726 59.2166H122.593L122.651 63.9476V67.3533C122.651 68.4691 123.161 68.9258 124.729 69.2279V69.3618C123.144 69.324 121.576 69.324 119.991 69.3618V69.2279C121.425 68.888 121.877 68.4314 121.877 67.3739L121.86 59.2337C121.86 58.1557 121.333 57.6064 119.991 57.3214V57.1875C121.086 57.2253 122.161 57.2253 123.257 57.1875L130.713 66.2719H130.847L130.771 62.8077V59.1719C130.771 58.0184 130.186 57.5617 128.714 57.318V57.1841C130.261 57.2218 131.809 57.2218 133.356 57.1841V57.318C132.072 57.5652 131.562 58.0939 131.562 59.1925V69.6399H131.299L122.73 59.2097L122.726 59.2166Z" fill="white"/>
<path id="Vector_17" d="M133.825 69.228C134.845 68.8881 135.318 68.4315 135.732 67.3912L140.018 56.9988H140.152L145.099 67.9199C145.475 68.792 145.873 69.0941 146.742 69.2245V69.3584C145.099 69.3207 143.476 69.3207 141.833 69.3584V69.2245C142.702 69.0151 143.363 68.9018 143.363 68.3731C143.363 68.2392 143.325 68.1087 143.25 67.9371L142.23 65.5716H137.266L136.509 67.3878C136.396 67.6727 136.338 67.8993 136.338 68.1087C136.338 68.7508 136.865 69.0735 137.868 69.2245V69.3584C136.53 69.3207 135.171 69.3207 133.829 69.3584V69.2245L133.825 69.228ZM141.959 64.9502L139.751 59.8003H139.618L137.505 64.9502H141.959Z" fill="white"/>
<path id="Vector_18" d="M148.526 69.2279C149.885 68.9257 150.132 68.6991 150.132 67.9404V58.6089C150.132 57.8501 149.885 57.6235 148.526 57.3214V57.1875C150.244 57.2253 151.98 57.2253 153.699 57.1875V57.3214C152.001 57.6235 151.754 57.8501 151.754 58.6089V68.7369H152.792C154.907 68.7369 155.811 68.0743 156.547 65.726H156.681C156.681 66.9379 156.739 68.1498 156.814 69.3618C154.058 69.324 151.285 69.324 148.529 69.3618V69.2279H148.526Z" fill="white"/>
<path id="Vector_19" d="M164.551 69.2279C165.91 68.9257 166.157 68.6991 166.157 67.9404V58.6089C166.157 57.8501 165.91 57.6235 164.551 57.3214V57.1875C166.157 57.2253 167.78 57.2253 169.382 57.1875V57.3214C168.023 57.6235 167.776 57.8501 167.776 58.6089V62.6017H174.836V58.6089C174.836 57.8501 174.589 57.6235 173.23 57.3214V57.1875C174.836 57.2253 176.458 57.2253 178.06 57.1875V57.3214C176.701 57.6235 176.455 57.8501 176.455 58.6089V67.9404C176.455 68.6991 176.701 68.9257 178.06 69.2279V69.3618C176.455 69.324 174.832 69.324 173.23 69.3618V69.2279C174.589 68.9257 174.836 68.6991 174.836 67.9404V63.2266H167.776V67.9404C167.776 68.6991 168.023 68.9257 169.382 69.2279V69.3618C167.776 69.324 166.153 69.324 164.551 69.3618V69.2279Z" fill="white"/>
<path id="Vector_20" d="M181.936 65.084V58.6089C181.936 57.8501 181.689 57.6235 180.33 57.3214V57.1875C181.936 57.2253 183.558 57.2253 185.161 57.1875V57.3214C183.802 57.6235 183.555 57.8501 183.555 58.6089V64.3252C183.555 67.4666 184.705 69.0013 187.143 69.0013C189.58 69.0013 190.919 67.525 190.919 64.9329V58.6089C190.919 57.8501 190.673 57.6235 189.033 57.3214V57.1875C190.525 57.2253 191.997 57.2253 193.487 57.1875V57.3214C191.939 57.6235 191.693 57.8501 191.693 58.6089V64.7406C191.693 67.9026 190.012 69.6605 186.937 69.6605C183.654 69.6605 181.936 68.1464 181.936 65.0805V65.084Z" fill="white"/>
<path id="Vector_21" d="M205 65.9149C205 67.9405 203.038 69.434 200.244 69.3584C198.676 69.3207 197.129 69.3207 195.564 69.3584V69.2245C196.924 68.9224 197.17 68.6958 197.17 67.9371V58.6055C197.17 57.8468 196.924 57.6202 195.564 57.3181V57.1842C197.132 57.2219 198.32 57.2219 199.697 57.1842C202.49 57.1086 204.151 58.2622 204.151 60.099C204.151 61.7469 203.017 62.5984 201.734 62.8799V63.0138C203.979 63.3743 205 64.6034 205 65.9115V65.9149ZM198.789 62.7906H199.902C201.545 62.7906 202.394 61.9564 202.394 60.2741C202.394 58.5918 201.337 57.8124 199.467 57.8124C199.204 57.8124 198.995 57.833 198.789 57.8708V62.7906ZM203.243 66.1792C203.243 64.5519 202.035 63.4155 200.316 63.4155H198.786V68.6786C199.313 68.737 199.899 68.737 200.467 68.737C202.09 68.737 203.24 67.6761 203.24 66.1827L203.243 66.1792Z" fill="white"/>
</g>
<g id="Group_4">
<path id="Vector_22" d="M72.1846 85.5291V78.927H73.8347C74.5023 78.927 75.0295 79.0918 75.4198 79.4248C75.8101 79.7544 76.0052 80.2042 76.0052 80.7672C76.0052 81.1517 75.9094 81.4848 75.7176 81.7663C75.5259 82.0478 75.252 82.2572 74.8926 82.3946C75.1014 82.5319 75.3102 82.7207 75.5088 82.9611C75.7108 83.2014 75.9915 83.6168 76.3578 84.2142C76.5872 84.5884 76.7721 84.8699 76.909 85.0588L77.2582 85.5326H76.1353L75.8477 85.0965C75.8477 85.0965 75.8203 85.0553 75.793 85.0176L75.6081 84.7566L75.3171 84.276L75.0021 83.761C74.807 83.4898 74.629 83.2735 74.4681 83.1121C74.3071 82.9508 74.1599 82.8375 74.0298 82.7654C73.8998 82.6933 73.6806 82.6589 73.3725 82.6589H73.126V85.5326H72.1846V85.5291ZM73.4102 79.7304H73.126V81.8144H73.4855C73.9614 81.8144 74.29 81.7732 74.4681 81.6908C74.6461 81.6084 74.783 81.4848 74.8823 81.32C74.9816 81.1552 75.0295 80.9663 75.0295 80.7535C75.0295 80.5406 74.9747 80.3587 74.8652 80.187C74.7556 80.0153 74.6016 79.8986 74.3996 79.8299C74.201 79.7613 73.8689 79.7269 73.4068 79.7269L73.4102 79.7304Z" fill="white"/>
<path id="Vector_23" d="M78.6753 78.927H82.4069V79.7681H79.6168V81.7835H82.3145V82.628H79.6168V84.6811H82.4959V85.5223H78.6719V78.927H78.6753Z" fill="white"/>
<path id="Vector_24" d="M86.2961 78.8892H86.9602L89.9113 85.529H88.9459L88.0695 83.5721H85.2588L84.4371 85.529H83.4683L86.2961 78.8892ZM87.6826 82.731L86.6213 80.338L85.6353 82.731H87.6826Z" fill="white"/>
<path id="Vector_25" d="M91.3218 78.927H92.2632V84.6708H95.228V85.5326H91.3218V78.9304V78.927Z" fill="white"/>
<path id="Vector_26" d="M101.264 78.927H104.995V79.7681H102.205V81.7835H104.903V82.628H102.205V84.6811H105.084V85.5223H101.26V78.927H101.264Z" fill="white"/>
<path id="Vector_27" d="M108.412 82.7618L107.697 82.3258C107.248 82.0512 106.927 81.7799 106.738 81.5121C106.547 81.2443 106.454 80.9388 106.454 80.592C106.454 80.0736 106.632 79.6513 106.995 79.3252C107.354 78.999 107.824 78.8376 108.399 78.8376C108.974 78.8376 109.453 78.9921 109.912 79.3011V80.3723C109.436 79.9157 108.926 79.6857 108.382 79.6857C108.073 79.6857 107.82 79.7578 107.622 79.8985C107.423 80.0427 107.324 80.2247 107.324 80.4478C107.324 80.647 107.396 80.8324 107.543 81.004C107.69 81.1757 107.923 81.3576 108.245 81.5465L108.964 81.9756C109.768 82.4563 110.169 83.0708 110.169 83.8124C110.169 84.3411 109.991 84.7703 109.638 85.1033C109.285 85.4363 108.823 85.6011 108.258 85.6011C107.608 85.6011 107.016 85.402 106.481 85.0003V83.7987C106.992 84.4441 107.58 84.7703 108.248 84.7703C108.542 84.7703 108.789 84.6879 108.984 84.5231C109.179 84.3583 109.279 84.1523 109.279 83.9051C109.279 83.5034 108.991 83.1223 108.412 82.7618Z" fill="white"/>
<path id="Vector_28" d="M111.333 78.9165H116.834V79.7576H114.54V85.5289H113.592V79.7576H111.333V78.9165Z" fill="white"/>
<path id="Vector_29" d="M119.549 78.8892H120.213L123.164 85.529H122.199L121.322 83.5721H118.512L117.69 85.529H116.721L119.549 78.8892ZM120.936 82.731L119.874 80.338L118.888 82.731H120.936Z" fill="white"/>
<path id="Vector_30" d="M123.047 78.9165H128.549V79.7576H126.255V85.5289H125.307V79.7576H123.047V78.9165Z" fill="white"/>
<path id="Vector_31" d="M130.127 78.927H133.859V79.7681H131.069V81.7835H133.767V82.628H131.069V84.6811H133.948V85.5223H130.124V78.927H130.127Z" fill="white"/>
</g>
</g>
</g>
</svg>
