<svg width="150" height="65" viewBox="0 0 150 65" fill="none" xmlns="http://www.w3.org/2000/svg">
<g id="Group 107309">
<g id="Group 1000003713">
<g id="Group 1000003714">
<g id="Group 107278">
<g id="Group 107241">
<path id="Vector" d="M4.57799 52.8968V52.985C3.41514 52.985 2.23441 52.985 1 52.985V52.8968C1.98395 52.6851 2.16285 52.5264 2.16285 51.9796V45.3127C2.16285 44.7835 1.98395 44.6248 1 44.3955H4.57799C3.59404 44.6248 3.41515 44.7835 3.41515 45.3127V51.9796C3.41515 52.5264 3.59404 52.6851 4.57799 52.8968Z" fill="#D0C8C2"/>
<path id="Vector_2" d="M8.35195 45.7536H8.24462V49.1224V51.5563C8.24462 52.35 8.60241 52.6851 9.74737 52.8968V52.985C8.58452 52.985 7.45746 52.985 6.3125 52.985V52.8968C7.35012 52.6499 7.67214 52.3324 7.67214 51.574V45.7712C7.67214 44.9952 7.29645 44.6072 6.33039 44.3955H8.69186L14.0589 50.8861H14.1483V48.3992V45.7183C14.1483 44.907 13.7189 44.5719 12.6455 44.3955H16.0267C15.0965 44.5719 14.7208 44.9599 14.7208 45.736V53.1966H14.524L8.35195 45.7536Z" fill="#D0C8C2"/>
<path id="Vector_3" d="M19.2824 52.8971C20.5347 52.6854 20.7136 52.5267 20.7136 51.9799V44.7486H19.9444C18.6384 44.7486 17.9407 45.4011 17.6187 46.9532H17.5292C17.5292 46.0714 17.5292 45.1895 17.4219 44.3076H25.204C25.204 45.1895 25.0967 46.0714 25.0967 46.9532C24.7746 45.4011 24.0769 44.7662 22.771 44.7486H21.9838V51.9799C21.9838 52.5267 22.1627 52.6854 23.415 52.8971V52.9853C21.9838 52.9853 20.8031 52.9853 19.3719 52.9853L19.2824 52.8971Z" fill="#D0C8C2"/>
<path id="Vector_4" d="M33.0225 52.985C30.9354 52.985 28.8423 52.985 26.7432 52.985V52.8968C27.7271 52.6851 27.906 52.5264 27.906 51.9796V45.3127C27.906 44.7835 27.7271 44.6248 26.7432 44.3955H33.0225C33.0225 45.1363 33.0225 45.8947 33.0225 46.6355C32.5574 45.2068 31.9849 44.8717 30.017 44.8717H29.2656V48.2934H30.2317C31.3588 48.2934 31.6629 48.0112 32.0207 47.0588H32.128C32.0744 48.034 32.0744 49.0114 32.128 49.9866H32.0207C31.645 49.0165 31.3409 48.7343 30.2317 48.7343H29.2656V52.6675H30.0707C31.8597 52.6675 32.5037 52.2442 33.0225 50.6039C33.0225 51.4329 33.0225 52.3677 33.0225 53.1084" fill="#D0C8C2"/>
<path id="Vector_5" d="M42.594 52.8968V52.985C42.248 53.1047 41.8867 53.1759 41.5206 53.1966C41.2886 53.1877 41.0637 53.1153 40.871 52.9876C40.6782 52.8599 40.5253 52.6819 40.4293 52.4735L38.4793 49.1929H38.211C37.8861 49.1976 37.5636 49.1376 37.2628 49.0165V51.962C37.2628 52.5088 37.4417 52.6675 38.4256 52.8791V52.9673C37.2628 52.9673 36.1 52.9673 34.8477 52.9673V52.8791C35.8316 52.6675 36.0105 52.5088 36.0105 51.962V45.3127C36.0105 44.7835 35.8316 44.6248 34.8477 44.3955H37.8532C40.1252 44.3955 41.4312 45.3303 41.4312 46.706C41.4094 47.2318 41.2269 47.7389 40.9076 48.1607C40.5884 48.5824 40.1473 48.8992 39.6422 49.0694L41.0376 51.327C41.6279 52.2618 42.272 52.8968 42.8266 52.985M40.1789 46.7237C40.1789 45.4538 39.3917 44.7483 37.8353 44.7483C37.6686 44.7336 37.501 44.7336 37.3344 44.7483V48.5403C37.6236 48.6581 37.9338 48.7181 38.2467 48.7167C38.5067 48.7121 38.7632 48.6568 39.0014 48.5539C39.2396 48.4511 39.4547 48.3027 39.6343 48.1174C39.814 47.932 39.9546 47.7135 40.0481 47.4742C40.1415 47.235 40.186 46.9799 40.1789 46.7237Z" fill="#D0C8C2"/>
<path id="Vector_6" d="M45.8677 45.7536V49.1224V51.5563C45.8677 52.35 46.2434 52.6851 47.3883 52.8968V52.985C46.2255 52.985 45.0984 52.985 43.9355 52.985V52.8968C44.9911 52.6499 45.3131 52.3324 45.3131 51.574V45.7712C45.3131 44.9952 44.9374 44.6072 43.9534 44.3955H46.2612L51.6282 50.8861H51.7356V48.3992V45.7183C51.7356 44.907 51.3062 44.5719 50.2328 44.3955H53.5961C52.6658 44.5719 52.2902 44.9599 52.2902 45.736V53.1966H52.0934L45.8677 45.7536Z" fill="#D0C8C2"/>
<path id="Vector_7" d="M53.9368 52.8966C54.2599 52.8123 54.556 52.6482 54.797 52.4199C55.038 52.1915 55.216 51.9064 55.3143 51.5914L58.4272 44.166L62.0052 51.9618C62.0776 52.2233 62.233 52.4552 62.4487 52.6234C62.6643 52.7916 62.929 52.8873 63.2038 52.8966V52.9848C62.0052 52.9848 60.8244 52.9848 59.6258 52.9848V52.8966C60.2698 52.7555 60.7529 52.6673 60.7529 52.2969C60.7459 52.1861 60.7154 52.0779 60.6634 51.9794L59.9299 50.2157H56.3519L55.8152 51.5209C55.7356 51.6801 55.6928 51.8548 55.69 52.0323C55.69 52.4909 56.0657 52.7202 56.7992 52.826V52.9142C55.8152 52.9142 54.8313 52.9142 53.8652 52.9142L53.9368 52.8966ZM59.8584 49.8453L58.2483 46.1767H58.0694L56.5308 49.8453H59.8584Z" fill="#D0C8C2"/>
<path id="Vector_8" d="M64.9388 52.8971C66.2089 52.6854 66.3879 52.5267 66.3879 51.9799V44.7486H65.6186C64.2947 44.7486 63.6149 45.4011 63.2929 46.9532H63.1855C63.1855 46.0714 63.1855 45.1895 63.1855 44.3076H70.9498C70.9498 45.1895 70.9498 46.0714 70.9498 46.9532H70.8603C70.5204 45.4011 69.8406 44.7662 68.5168 44.7486H67.7475V51.9799C67.7475 52.5267 67.9264 52.6854 69.1787 52.8971V52.9853C67.7475 52.9853 66.5667 52.9853 65.1177 52.9853L64.9388 52.8971Z" fill="#D0C8C2"/>
<path id="Vector_9" d="M75.9589 52.8968V52.985C74.796 52.985 73.6153 52.985 72.3809 52.985V52.8968C73.3648 52.6851 73.5437 52.5264 73.5437 51.9796V45.3127C73.5437 44.7835 73.3648 44.6248 72.3809 44.3955H75.9589C74.957 44.6248 74.796 44.7835 74.796 45.3127V51.9796C74.796 52.5264 74.957 52.6851 75.9589 52.8968Z" fill="#D0C8C2"/>
<path id="Vector_10" d="M86.5318 48.5046C86.5508 49.108 86.4479 49.7092 86.2289 50.273C86.01 50.8369 85.6795 51.3521 85.2565 51.7888C84.8336 52.2254 84.3268 52.5747 83.7656 52.8163C83.2044 53.058 82.6 53.1871 81.9877 53.1961C81.388 53.2221 80.7895 53.1233 80.2312 52.9062C79.6728 52.689 79.167 52.3584 78.7468 51.9358C78.3266 51.5132 78.0014 51.0081 77.7923 50.4534C77.5832 49.8987 77.4949 49.3068 77.5331 48.7162C77.5165 48.1119 77.6216 47.5104 77.8426 46.9464C78.0635 46.3825 78.3957 45.8674 78.8201 45.431C79.2444 44.9946 79.7524 44.6456 80.3146 44.4042C80.8767 44.1628 81.4819 44.0338 82.095 44.0247C82.6869 44.002 83.277 44.1009 83.8281 44.3149C84.3792 44.529 84.8791 44.8536 85.2962 45.2681C85.7134 45.6827 86.0386 46.1782 86.2513 46.7231C86.4639 47.2681 86.5595 47.8507 86.5318 48.434M85.2079 48.8221C85.2079 46.2823 83.9019 44.5009 81.8625 44.5009C80.0735 44.5009 78.8391 46.0882 78.8391 48.3282C78.8391 50.868 80.2166 52.6494 82.1666 52.6494C84.1166 52.6494 85.2079 51.062 85.2079 48.8221Z" fill="#D0C8C2"/>
<path id="Vector_11" d="M90.1635 45.7536H90.0561V49.1224V51.5563C90.0561 52.35 90.4139 52.6851 91.5589 52.8968V52.985C90.3662 52.985 89.2213 52.985 88.124 52.985V52.8968C89.1616 52.6499 89.4837 52.3324 89.4837 51.574V45.7712C89.4837 44.9952 89.108 44.6072 88.1419 44.3955H90.5034L95.8704 50.8861V48.3992V45.7183C95.8704 44.907 95.441 44.5719 94.3855 44.3955H97.7488C96.8185 44.5719 96.4428 44.9599 96.4428 45.736V53.1966H96.2461L90.1635 45.7536Z" fill="#D0C8C2"/>
<path id="Vector_12" d="M98.2139 52.8966C98.5385 52.8154 98.8362 52.6524 99.0777 52.4236C99.3192 52.1948 99.4962 51.908 99.5914 51.5914L102.794 44.166L106.372 51.9618C106.449 52.2206 106.606 52.4495 106.82 52.6169C107.035 52.7843 107.297 52.882 107.57 52.8966V52.9848C106.372 52.9848 105.191 52.9848 103.992 52.9848V52.8966C104.618 52.7555 105.101 52.6673 105.101 52.2969C105.123 52.1922 105.123 52.0842 105.101 51.9794L104.368 50.2157H100.79L100.235 51.5209C100.156 51.6801 100.113 51.8548 100.11 52.0323C100.11 52.4909 100.486 52.7202 101.219 52.826V52.9142C100.253 52.9142 99.2515 52.9142 98.2854 52.9142L98.2139 52.8966ZM104.118 49.8453L102.525 46.1767H102.418L100.879 49.8453H104.118Z" fill="#D0C8C2"/>
<path id="Vector_13" d="M108.894 52.8968C109.878 52.6851 110.057 52.5264 110.057 51.9796V45.3127C110.057 44.7835 109.878 44.6248 108.894 44.3955H112.651C111.417 44.6248 111.238 44.7835 111.238 45.3127V52.544H111.989C113.528 52.544 114.172 52.0678 114.708 50.3923H114.816C114.816 51.2565 114.816 52.156 114.816 52.985C112.812 52.985 110.808 52.985 108.805 52.985L108.894 52.8968Z" fill="#D0C8C2"/>
<path id="Vector_14" d="M120.523 52.8968C121.507 52.6851 121.686 52.5264 121.686 51.9796V45.3127C121.686 44.7835 121.507 44.6248 120.523 44.3955H124.101C123.117 44.6248 122.938 44.7835 122.938 45.3127V48.1699H128.054V45.3127C128.054 44.7835 127.876 44.6248 126.892 44.3955H130.47C129.486 44.6248 129.307 44.7835 129.307 45.3127V51.9796C129.307 52.5264 129.486 52.6851 130.47 52.8968V52.985C129.307 52.985 128.126 52.985 126.892 52.985V52.8968C127.876 52.6851 128.054 52.5264 128.054 51.9796V48.6109H122.866V51.9796C122.866 52.5264 123.045 52.6851 124.029 52.8968V52.985C122.866 52.985 121.686 52.985 120.451 52.985L120.523 52.8968Z" fill="#D0C8C2"/>
<path id="Vector_15" d="M133.207 49.9337V45.3127C133.207 44.7835 133.028 44.6248 132.044 44.3955H135.622C134.638 44.6248 134.459 44.7835 134.459 45.3127V49.4046C134.459 51.6445 135.3 52.738 137.071 52.738C137.456 52.7628 137.841 52.7026 138.2 52.5619C138.558 52.4213 138.88 52.2037 139.142 51.9249C139.404 51.6462 139.6 51.3133 139.715 50.9505C139.83 50.5878 139.862 50.2043 139.808 49.8279V45.3127C139.808 44.7835 139.629 44.6248 138.431 44.3955H141.669C140.542 44.6248 140.363 44.7835 140.363 45.3127V49.7044C140.427 50.1719 140.384 50.6477 140.235 51.0961C140.086 51.5445 139.836 51.9539 139.504 52.2934C139.171 52.6329 138.765 52.8937 138.316 53.0563C137.867 53.2188 137.386 53.2789 136.91 53.2319C134.531 53.2319 133.332 52.1384 133.332 49.9513" fill="#D0C8C2"/>
<path id="Vector_16" d="M149.88 50.4804C149.88 51.9267 148.467 52.985 146.427 52.9321C145.3 52.9321 144.173 52.9321 143.028 52.9321V52.8439C144.012 52.6322 144.191 52.4735 144.191 51.9267V45.3127C144.191 44.7835 144.012 44.6248 143.028 44.3955H146.034C148.055 44.3955 149.272 45.1716 149.272 46.4767C149.279 46.9671 149.099 47.4421 148.768 47.8079C148.436 48.1737 147.978 48.4036 147.483 48.4521V48.558C149.111 48.8049 149.844 49.6868 149.844 50.6215M145.372 48.311H146.177C146.418 48.336 146.662 48.3075 146.89 48.2277C147.119 48.1479 147.327 48.0187 147.498 47.8497C147.669 47.6807 147.8 47.476 147.881 47.2507C147.962 47.0253 147.991 46.785 147.966 46.5473C147.966 45.3832 147.197 44.7835 145.837 44.7835C145.671 44.7643 145.503 44.7643 145.336 44.7835L145.372 48.311ZM148.61 50.7274C148.618 50.4535 148.568 50.1811 148.463 49.9275C148.358 49.674 148.199 49.4451 147.999 49.2556C147.798 49.0661 147.559 48.9202 147.298 48.8274C147.037 48.7345 146.758 48.6968 146.481 48.7167H145.372V52.4735C145.765 52.4735 146.177 52.4735 146.588 52.4735C146.842 52.5063 147.1 52.4851 147.345 52.4112C147.589 52.3374 147.815 52.2127 148.007 52.0455C148.198 51.8784 148.351 51.6726 148.455 51.4422C148.559 51.2117 148.612 50.962 148.61 50.7097" fill="#D0C8C2"/>
<path id="Vector_17" d="M53.4717 64.5907V59.8109H54.6703C55.0818 59.7951 55.4862 59.9197 55.8153 60.1637C55.9536 60.272 56.0667 60.4084 56.1469 60.5636C56.2272 60.7188 56.2727 60.8892 56.2804 61.0632C56.2857 61.3147 56.2106 61.5615 56.0657 61.7687C55.9239 61.98 55.7169 62.1407 55.4754 62.2272C55.6468 62.3363 55.7981 62.4735 55.9226 62.6329C56.1517 62.9084 56.3552 63.2035 56.5309 63.5148C56.7098 63.7793 56.835 63.991 56.9423 64.1145L57.1928 64.4672H56.2804L56.0836 64.1497L55.9584 63.9557L55.7437 63.6206L55.5111 63.2502C55.3972 63.0887 55.2717 62.9354 55.1354 62.7916C55.0442 62.6907 54.9351 62.607 54.8134 62.5447C54.6623 62.4763 54.4963 62.446 54.3304 62.4565H54.1515V64.5907H53.4717ZM54.3662 60.4459H54.1515V61.9274H54.4914C54.7335 61.9462 54.977 61.9162 55.207 61.8392C55.3302 61.7858 55.4312 61.6924 55.4932 61.5747C55.5689 61.4529 55.6062 61.3117 55.6006 61.169C55.6054 61.0276 55.5648 60.8883 55.4844 60.7711C55.4041 60.6539 55.2882 60.5647 55.1533 60.5164C54.9162 60.4806 54.6749 60.4806 54.4377 60.5164" fill="#D0C8C2"/>
<path id="Vector_18" d="M58.1768 59.8115H60.896V60.4112H58.8745V61.8575H60.8245V62.4571H58.8745V63.9211H60.9676V64.5207H58.1768V59.8115Z" fill="#D0C8C2"/>
<path id="Vector_19" d="M63.7217 59.793H64.1869L66.3337 64.5904H65.6359L64.9919 63.197H62.9703L62.3621 64.5904H61.6465L63.7217 59.793ZM64.7236 62.5268L63.9543 60.763L63.2387 62.5268H64.7236Z" fill="#D0C8C2"/>
<path id="Vector_20" d="M67.3721 59.8115H68.0519V63.9211H70.1987V64.5384H67.3721V59.8115Z" fill="#D0C8C2"/>
<path id="Vector_21" d="M74.5811 59.8115H77.2824V60.4112H75.2609V61.8575H77.2288V62.4571H75.2609V63.9211H77.354V64.5207H74.5811V59.8115Z" fill="#D0C8C2"/>
<path id="Vector_22" d="M79.7693 62.5619L79.2505 62.2444C78.9822 62.0963 78.7454 61.8987 78.5528 61.6624C78.4109 61.4738 78.3355 61.2446 78.3381 61.0098C78.3347 60.8408 78.368 60.6731 78.4359 60.5179C78.5038 60.3627 78.6047 60.2237 78.7317 60.1103C79.0155 59.8721 79.3789 59.7464 79.7514 59.7575C80.1473 59.7546 80.5344 59.8716 80.8606 60.0926V60.851C80.563 60.5502 80.1595 60.3734 79.7335 60.3572C79.5419 60.3508 79.3533 60.4066 79.1969 60.5159C79.1308 60.5575 79.0765 60.6149 79.039 60.6828C79.0014 60.7506 78.9819 60.8267 78.9822 60.904C78.9859 61.0506 79.036 61.1924 79.1253 61.3096C79.2784 61.4629 79.4532 61.5935 79.6441 61.6976L80.1629 61.9975C80.4168 62.1143 80.633 62.298 80.7877 62.5283C80.9424 62.7586 81.0295 63.0266 81.0395 63.3027C81.0458 63.4756 81.0157 63.648 80.951 63.8089C80.8864 63.9698 80.7886 64.1157 80.6638 64.2374C80.3864 64.4745 80.0289 64.6003 79.662 64.5902C79.1933 64.5977 78.737 64.4415 78.3739 64.1493V63.3027C78.5143 63.5092 78.7029 63.6795 78.9239 63.7992C79.145 63.9189 79.392 63.9845 79.6441 63.9905C79.839 63.9993 80.0302 63.9365 80.1808 63.8141C80.2478 63.7612 80.3019 63.6941 80.3391 63.6178C80.3763 63.5415 80.3955 63.4579 80.3955 63.3732C80.3955 63.091 80.1808 62.8088 79.7693 62.5619Z" fill="#D0C8C2"/>
<path id="Vector_23" d="M81.8809 59.8115H85.8882V60.4112H84.2066V64.5384H83.5267V60.4112H81.8809V59.8115Z" fill="#D0C8C2"/>
<path id="Vector_24" d="M87.8562 59.793H88.3392L90.486 64.5904H89.7704L89.1443 63.197H87.1048L86.4965 64.5904H85.7988L87.8562 59.793ZM88.858 62.5268L88.0887 60.763L87.3731 62.5268H88.858Z" fill="#D0C8C2"/>
<path id="Vector_25" d="M90.3955 59.8115H94.385V60.4112H92.7212V64.5384H92.0235V60.4112H90.3955V59.8115Z" fill="#D0C8C2"/>
<path id="Vector_26" d="M95.5303 59.8105H98.2495V60.4102H96.2101V61.8565H98.178V62.4562H96.2101V63.9201H98.3032V64.5198H95.5303V59.8105Z" fill="#D0C8C2"/>
</g>
</g>
<g id="Group 107240">
<path id="Vector_27" d="M38.2899 28.7532V25.1279H30.0479V28.7532C30.0423 29.6578 29.6754 30.5237 29.0266 31.1633C28.3779 31.803 27.4995 32.1647 26.582 32.1702V32.7952H41.7346V32.1702C40.8191 32.1647 39.9429 31.8023 39.2975 31.162C38.6521 30.5218 38.2899 29.6559 38.2899 28.7532Z" fill="#D0C8C2"/>
<path id="Vector_28" d="M59.0428 28.8157V25.1904H50.8008V28.8157C50.7953 29.7203 50.4283 30.5862 49.7796 31.2258C49.1308 31.8655 48.2525 32.2272 47.335 32.2327V32.8577H62.5087V32.2327C61.5912 32.2272 60.7128 31.8655 60.0641 31.2258C59.4153 30.5862 59.0483 29.7203 59.0428 28.8157Z" fill="#D0C8C2"/>
<path id="Vector_29" d="M50.8008 20.8142H59.0428V4.14617C59.0483 3.24163 59.4152 2.37569 60.064 1.73606C60.7128 1.09644 61.5911 0.734689 62.5086 0.729224V0.104174H47.3349V0.729224C48.2524 0.734689 49.1307 1.09644 49.7795 1.73606C50.4283 2.37569 50.7952 3.24163 50.8008 4.14617V13.5636H38.2899V4.042C38.2898 3.13936 38.6521 2.27339 39.2975 1.63319C39.9429 0.99298 40.819 0.630554 41.7346 0.62505V0H26.582V0.62505C27.4995 0.630516 28.3778 0.99227 29.0266 1.63189C29.6754 2.27151 30.0423 3.13745 30.0479 4.042V13.5636H20.4956C20.0932 13.5636 19.6947 13.4855 19.323 13.3336C18.9512 13.1818 18.6134 12.9593 18.3288 12.6788C18.0443 12.3982 17.8186 12.0652 17.6646 11.6987C17.5106 11.3321 17.4313 10.9393 17.4313 10.5425H16.8818V23.7728H17.4313C17.4313 23.3761 17.5106 22.9832 17.6646 22.6167C17.8186 22.2501 18.0443 21.9171 18.3288 21.6366C18.6134 21.356 18.9512 21.1335 19.323 20.9817C19.6947 20.8299 20.0932 20.7517 20.4956 20.7517H50.8008V20.8142Z" fill="#D0C8C2"/>
<path id="Vector_30" d="M62.5088 13.5635V20.7516H119.378V24.9186C119.378 25.2612 119.517 25.5898 119.762 25.832C120.008 26.0743 120.341 26.2104 120.689 26.2104H124.725V30.3774C124.731 30.7219 124.873 31.0504 125.123 31.2921C125.372 31.5338 125.707 31.6692 126.057 31.6691H130.283V35.8362C130.283 36.1807 130.421 36.5114 130.666 36.757C130.911 37.0026 131.244 37.1433 131.593 37.1488H139.772C140.125 37.1488 140.464 37.0105 140.714 36.7643C140.963 36.5181 141.103 36.1843 141.103 35.8362V20.7516H150.001V13.5635H62.5088Z" fill="#D0C8C2"/>
<path id="Vector_31" d="M6.33604 11.6723L0 17.9189L6.33604 24.1656L12.6721 17.9189L6.33604 11.6723Z" fill="#D0C8C2"/>
</g>
</g>
</g>
</g>
</svg>
